<svg width="1275" height="3656" viewBox="0 0 1275 3656" fill="none" xmlns="http://www.w3.org/2000/svg">
<path d="M219.263 1637.83L386.389 1587.64L513.418 1707.28L473.32 1877.11L306.193 1927.3L179.165 1807.66L219.263 1637.83Z" fill="#0EA5E9"/>
<path d="M379.792 1608.61L234.551 1652.23L199.478 1800.77L346.112 1756.93L346.427 1756.6L379.792 1608.61Z" fill="#0EA5E9"/>
<path d="M380.891 1608.28L347.342 1757.08L457.571 1860.9L492.463 1713.12L381.086 1608.22L380.891 1608.28Z" fill="#0284C7"/>
<path d="M310.771 1906.03L199.967 1801.67L346.656 1757.81L457.306 1862.03L310.771 1906.03Z" fill="#1E1E1E"/>
<path d="M475.563 1790.56L642.69 1740.37L769.719 1860.01L729.621 2029.84L562.494 2080.03L435.466 1960.39L475.563 1790.56Z" fill="#0EA5E9"/>
<path d="M636.092 1761.34L490.852 1804.95L455.778 1953.5L602.413 1909.66L602.727 1909.32L636.092 1761.34Z" fill="#0EA5E9"/>
<path d="M637.192 1761.01L603.643 1909.81L713.872 2013.63L748.764 1865.85L637.387 1760.95L637.192 1761.01Z" fill="#0284C7"/>
<path d="M567.072 2058.76L456.268 1954.4L602.957 1910.54L713.607 2014.75L567.072 2058.76Z" fill="#1E1E1E"/>
<path d="M800.605 3355.53L683.594 3484.99L512.976 3448.38L459.371 3282.32L576.382 3152.86L746.999 3189.47L800.605 3355.53Z" fill="#0EA5E9"/>
<path d="M678.383 3463.63L780.071 3351.13L733.183 3205.88L630.42 3319.29L630.324 3319.74L678.383 3463.63Z" fill="#0EA5E9"/>
<path d="M677.613 3464.48L629.289 3319.8L481.235 3288.03L527.882 3432.54L677.477 3464.63L677.613 3464.48Z" fill="#0284C7"/>
<path d="M583.475 3173.43L732.3 3205.36L629.498 3318.82L480.881 3286.93L583.475 3173.43Z" fill="#1E1E1E"/>
<path d="M502.176 2989.73L355.464 3084.21L200.289 3004.39L191.826 2830.1L338.538 2735.62L493.713 2815.44L502.176 2989.73Z" fill="#0EA5E9"/>
<path d="M356.001 3062.23L483.501 2980.13L476.098 2827.67L347.322 2910.38L347.112 2910.79L356.001 3062.23Z" fill="#0EA5E9"/>
<path d="M355.036 3062.85L346.098 2910.58L211.444 2841.31L218.809 2992.98L354.865 3062.96L355.036 3062.85Z" fill="#0284C7"/>
<path d="M340.024 2757.32L475.379 2826.95L346.555 2909.69L211.388 2840.16L340.024 2757.32Z" fill="#1E1E1E"/>
<path d="M901.658 1161.16L946.33 1329.85L822.581 1452.88L654.159 1407.22L609.487 1238.54L733.236 1115.51L901.658 1161.16Z" fill="#0EA5E9"/>
<path d="M630.594 1243.81L738.537 1136.49L777.555 1284.55L669.762 1391.71L630.594 1243.81Z" fill="#1E1E1E"/>
<path d="M543.629 515.722L685.103 617.876L667.373 791.473L508.169 862.916L366.694 760.763L384.425 587.166L543.629 515.722Z" fill="#0EA5E9"/>
<path d="M664.445 625.39L541.497 536.614L402.243 599.105L526.219 688.849L526.674 688.896L664.445 625.39Z" fill="#0EA5E9"/>
<path d="M665.376 626.062L526.845 689.919L511.459 840.558L649.995 778.389L665.541 626.181L665.376 626.062Z" fill="#0284C7"/>
<path d="M386.363 751.463L401.828 600.039L525.85 689.817L510.406 841.03L386.363 751.463Z" fill="#1E1E1E"/>
<path d="M841.11 559.592L678.812 623.859L542.025 515.486L567.536 342.846L729.834 278.579L866.621 386.952L841.11 559.592Z" fill="#0EA5E9"/>
<path d="M683.603 602.403L824.648 546.552L846.962 395.545L704.547 451.742L704.262 452.101L683.603 602.403Z" fill="#0EA5E9"/>
<path d="M682.535 602.826L703.309 451.694L584.611 357.653L562.412 507.88L682.346 602.901L682.535 602.826Z" fill="#0284C7"/>
<path d="M727.082 300.162L846.398 394.693L703.93 450.91L584.78 356.511L727.082 300.162Z" fill="#1E1E1E"/>
<path d="M1008.07 1081.57L839.784 1035.43L795.594 866.618L919.695 743.943L1087.99 790.08L1132.17 958.892L1008.07 1081.57Z" fill="#0EA5E9"/>
<path d="M856.502 1021.16L1002.75 1061.25L1111.3 953.949L963.75 913.307L963.307 913.423L856.502 1021.16Z" fill="#1E1E1E"/>
<path d="M855.395 1020.85L962.789 912.525L924.444 766.038L816.454 872.787L855.199 1020.8L855.395 1020.85Z" fill="#1E1E1E"/>
<path d="M1072.82 805.678L1111.37 952.929L963.756 912.272L925.265 765.226L1072.82 805.678Z" fill="#1E1E1E"/>
<path d="M355.573 2563.71L187.283 2517.57L143.093 2348.76L267.194 2226.08L435.485 2272.22L479.674 2441.03L355.573 2563.71Z" fill="#0EA5E9"/>
<path d="M204.001 2503.3L350.254 2543.39L458.803 2436.09L311.249 2395.45L310.806 2395.56L204.001 2503.3Z" fill="#1E1E1E"/>
<path d="M202.894 2502.99L310.288 2394.67L271.943 2248.18L163.953 2354.93L202.698 2502.94L202.894 2502.99Z" fill="#1E1E1E"/>
<path d="M420.319 2287.82L458.864 2435.07L311.255 2394.41L272.764 2247.37L420.319 2287.82Z" fill="#1E1E1E"/>
</svg>
