<svg width="396" height="454" viewBox="0 0 396 454" fill="none" xmlns="http://www.w3.org/2000/svg">
<path fill-rule="evenodd" clip-rule="evenodd" d="M392.766 419.429V268.966H2.80414V419.429L2.79641 425.696C2.77936 439.515 13.9772 450.727 27.7964 450.727H197.746H367.758C381.553 450.727 392.741 439.552 392.758 425.757L392.766 419.429Z" fill="#0F172A"/>
<path d="M27.8041 118.502C13.997 118.502 2.80414 129.695 2.80414 143.502V268.966H392.766V143.502C392.766 129.695 381.573 118.502 367.766 118.502H327.007C313.2 118.502 302.007 107.309 302.007 93.5022V74.3056C302.007 65.2365 297.096 56.8786 289.173 52.4653L208.483 7.51916C200.904 3.2975 191.679 3.30678 184.108 7.54368L103.86 52.456C95.9613 56.8764 91.0691 65.2207 91.0691 74.2718V93.5022C91.0691 107.309 79.8762 118.502 66.0691 118.502H27.8041Z" fill="#0284C7"/>
<path d="M2.80414 268.966V419.429L2.79641 425.696C2.77936 439.515 13.9772 450.727 27.7964 450.727H197.746H367.758C381.553 450.727 392.741 439.552 392.758 425.757L392.766 419.429V268.966M2.80414 268.966V143.502C2.80414 129.695 13.997 118.502 27.8041 118.502H66.0691C79.8762 118.502 91.0691 107.309 91.0691 93.5022V74.2718C91.0691 65.2207 95.9613 56.8764 103.86 52.456L184.108 7.54368C191.679 3.30678 200.904 3.2975 208.483 7.51916L289.173 52.4653C297.096 56.8786 302.007 65.2365 302.007 74.3056V93.5022C302.007 107.309 313.2 118.502 327.007 118.502H367.766C381.573 118.502 392.766 129.695 392.766 143.502V268.966M2.80414 268.966H392.766" stroke="#38BDF8" stroke-width="5"/>
<path d="M115.806 91.1547C117.286 91.1547 118.579 91.4414 119.686 92.0147C120.806 92.5747 121.666 93.388 122.266 94.4547C122.879 95.508 123.186 96.7414 123.186 98.1547C123.186 99.568 122.879 100.795 122.266 101.835C121.666 102.875 120.806 103.675 119.686 104.235C118.579 104.781 117.286 105.055 115.806 105.055H111.266V91.1547H115.806ZM115.806 103.195C117.432 103.195 118.679 102.755 119.546 101.875C120.412 100.995 120.846 99.7547 120.846 98.1547C120.846 96.5414 120.412 95.2814 119.546 94.3747C118.679 93.468 117.432 93.0147 115.806 93.0147H113.546V103.195H115.806ZM127.725 92.9947V97.0747H132.525V98.9347H127.725V103.195H133.125V105.055H125.445V91.1347H133.125V92.9947H127.725ZM140.514 105.195C139.58 105.195 138.74 105.035 137.994 104.715C137.247 104.381 136.66 103.915 136.234 103.315C135.807 102.715 135.594 102.015 135.594 101.215H138.034C138.087 101.815 138.32 102.308 138.734 102.695C139.16 103.081 139.754 103.275 140.514 103.275C141.3 103.275 141.914 103.088 142.354 102.715C142.794 102.328 143.014 101.835 143.014 101.235C143.014 100.768 142.874 100.388 142.594 100.095C142.327 99.8014 141.987 99.5747 141.574 99.4147C141.174 99.2547 140.614 99.0814 139.894 98.8947C138.987 98.6547 138.247 98.4147 137.674 98.1747C137.114 97.9214 136.634 97.5347 136.234 97.0147C135.834 96.4947 135.634 95.8014 135.634 94.9347C135.634 94.1347 135.834 93.4347 136.234 92.8347C136.634 92.2347 137.194 91.7747 137.914 91.4547C138.634 91.1347 139.467 90.9747 140.414 90.9747C141.76 90.9747 142.86 91.3147 143.714 91.9947C144.58 92.6614 145.06 93.5814 145.154 94.7547H142.634C142.594 94.248 142.354 93.8147 141.914 93.4547C141.474 93.0947 140.894 92.9147 140.174 92.9147C139.52 92.9147 138.987 93.0814 138.574 93.4147C138.16 93.748 137.954 94.228 137.954 94.8547C137.954 95.2814 138.08 95.6347 138.334 95.9147C138.6 96.1814 138.934 96.3947 139.334 96.5547C139.734 96.7147 140.28 96.888 140.974 97.0747C141.894 97.328 142.64 97.5814 143.214 97.8347C143.8 98.088 144.294 98.4814 144.694 99.0147C145.107 99.5347 145.314 100.235 145.314 101.115C145.314 101.821 145.12 102.488 144.734 103.115C144.36 103.741 143.807 104.248 143.074 104.635C142.354 105.008 141.5 105.195 140.514 105.195ZM156.384 102.215H150.564L149.564 105.055H147.184L152.164 91.1347H154.804L159.784 105.055H157.384L156.384 102.215ZM155.744 100.355L153.484 93.8947L151.204 100.355H155.744ZM169.169 105.055L165.969 99.4947H164.229V105.055H161.949V91.1547H166.749C167.816 91.1547 168.716 91.3414 169.449 91.7147C170.196 92.088 170.749 92.588 171.109 93.2147C171.483 93.8414 171.669 94.5414 171.669 95.3147C171.669 96.2214 171.403 97.048 170.869 97.7947C170.349 98.528 169.543 99.028 168.449 99.2947L171.889 105.055H169.169ZM164.229 97.6747H166.749C167.603 97.6747 168.243 97.4614 168.669 97.0347C169.109 96.608 169.329 96.0347 169.329 95.3147C169.329 94.5947 169.116 94.0347 168.689 93.6347C168.263 93.2214 167.616 93.0147 166.749 93.0147H164.229V97.6747ZM181.806 105.055L178.606 99.4947H176.866V105.055H174.586V91.1547H179.386C180.453 91.1547 181.353 91.3414 182.086 91.7147C182.833 92.088 183.386 92.588 183.746 93.2147C184.119 93.8414 184.306 94.5414 184.306 95.3147C184.306 96.2214 184.039 97.048 183.506 97.7947C182.986 98.528 182.179 99.028 181.086 99.2947L184.526 105.055H181.806ZM176.866 97.6747H179.386C180.239 97.6747 180.879 97.4614 181.306 97.0347C181.746 96.608 181.966 96.0347 181.966 95.3147C181.966 94.5947 181.753 94.0347 181.326 93.6347C180.899 93.2214 180.253 93.0147 179.386 93.0147H176.866V97.6747ZM193.563 105.195C192.269 105.195 191.076 104.895 189.983 104.295C188.903 103.681 188.043 102.835 187.403 101.755C186.776 100.661 186.463 99.4347 186.463 98.0747C186.463 96.7147 186.776 95.4947 187.403 94.4147C188.043 93.3347 188.903 92.4947 189.983 91.8947C191.076 91.2814 192.269 90.9747 193.563 90.9747C194.869 90.9747 196.063 91.2814 197.143 91.8947C198.236 92.4947 199.096 93.3347 199.723 94.4147C200.349 95.4947 200.663 96.7147 200.663 98.0747C200.663 99.4347 200.349 100.661 199.723 101.755C199.096 102.835 198.236 103.681 197.143 104.295C196.063 104.895 194.869 105.195 193.563 105.195ZM193.563 103.215C194.483 103.215 195.303 103.008 196.023 102.595C196.743 102.168 197.303 101.568 197.703 100.795C198.116 100.008 198.323 99.1014 198.323 98.0747C198.323 97.048 198.116 96.148 197.703 95.3747C197.303 94.6014 196.743 94.008 196.023 93.5947C195.303 93.1814 194.483 92.9747 193.563 92.9747C192.643 92.9747 191.823 93.1814 191.103 93.5947C190.383 94.008 189.816 94.6014 189.403 95.3747C189.003 96.148 188.803 97.048 188.803 98.0747C188.803 99.1014 189.003 100.008 189.403 100.795C189.816 101.568 190.383 102.168 191.103 102.595C191.823 103.008 192.643 103.215 193.563 103.215ZM205.186 103.215H209.886V105.055H202.906V91.1547H205.186V103.215ZM214.073 103.215H218.773V105.055H211.793V91.1547H214.073V103.215ZM227.02 105.195C225.726 105.195 224.533 104.895 223.44 104.295C222.36 103.681 221.5 102.835 220.86 101.755C220.233 100.661 219.92 99.4347 219.92 98.0747C219.92 96.7147 220.233 95.4947 220.86 94.4147C221.5 93.3347 222.36 92.4947 223.44 91.8947C224.533 91.2814 225.726 90.9747 227.02 90.9747C228.326 90.9747 229.52 91.2814 230.6 91.8947C231.693 92.4947 232.553 93.3347 233.18 94.4147C233.806 95.4947 234.12 96.7147 234.12 98.0747C234.12 99.4347 233.806 100.661 233.18 101.755C232.553 102.835 231.693 103.681 230.6 104.295C229.52 104.895 228.326 105.195 227.02 105.195ZM227.02 103.215C227.94 103.215 228.76 103.008 229.48 102.595C230.2 102.168 230.76 101.568 231.16 100.795C231.573 100.008 231.78 99.1014 231.78 98.0747C231.78 97.048 231.573 96.148 231.16 95.3747C230.76 94.6014 230.2 94.008 229.48 93.5947C228.76 93.1814 227.94 92.9747 227.02 92.9747C226.1 92.9747 225.28 93.1814 224.56 93.5947C223.84 94.008 223.273 94.6014 222.86 95.3747C222.46 96.148 222.26 97.048 222.26 98.0747C222.26 99.1014 222.46 100.008 222.86 100.795C223.273 101.568 223.84 102.168 224.56 102.595C225.28 103.008 226.1 103.215 227.02 103.215ZM259.659 91.1547L255.539 105.055H252.959L250.039 94.5347L246.939 105.055L244.379 105.075L240.439 91.1547H242.859L245.739 102.475L248.859 91.1547H251.419L254.319 102.415L257.219 91.1547H259.659ZM263.819 92.9947V97.0747H268.619V98.9347H263.819V103.195H269.219V105.055H261.539V91.1347H269.219V92.9947H263.819ZM279.467 97.9147C280.214 98.048 280.847 98.4414 281.367 99.0947C281.887 99.748 282.147 100.488 282.147 101.315C282.147 102.021 281.961 102.661 281.587 103.235C281.227 103.795 280.701 104.241 280.007 104.575C279.314 104.895 278.507 105.055 277.587 105.055H272.027V91.1547H277.327C278.274 91.1547 279.087 91.3147 279.767 91.6347C280.447 91.9547 280.961 92.388 281.307 92.9347C281.654 93.468 281.827 94.068 281.827 94.7347C281.827 95.5347 281.614 96.2014 281.187 96.7347C280.761 97.268 280.187 97.6614 279.467 97.9147ZM274.307 96.9947H277.127C277.874 96.9947 278.454 96.828 278.867 96.4947C279.294 96.148 279.507 95.6547 279.507 95.0147C279.507 94.388 279.294 93.9014 278.867 93.5547C278.454 93.1947 277.874 93.0147 277.127 93.0147H274.307V96.9947ZM277.387 103.195C278.161 103.195 278.767 103.008 279.207 102.635C279.647 102.261 279.867 101.741 279.867 101.075C279.867 100.395 279.634 99.8547 279.167 99.4547C278.701 99.0547 278.081 98.8547 277.307 98.8547H274.307V103.195H277.387Z" fill="#0F172A"/>
<path d="M143.551 149.002V152.332H135.001V180.367H130.906V152.332H122.311V149.002H143.551ZM150.707 151.702C149.927 151.702 149.267 151.432 148.727 150.892C148.187 150.352 147.917 149.692 147.917 148.912C147.917 148.132 148.187 147.472 148.727 146.932C149.267 146.392 149.927 146.122 150.707 146.122C151.457 146.122 152.087 146.392 152.597 146.932C153.137 147.472 153.407 148.132 153.407 148.912C153.407 149.692 153.137 150.352 152.597 150.892C152.087 151.432 151.457 151.702 150.707 151.702ZM152.687 155.707V180.367H148.592V155.707H152.687ZM182.166 167.092C182.166 167.872 182.121 168.697 182.031 169.567H162.321C162.471 171.997 163.296 173.902 164.796 175.282C166.326 176.632 168.171 177.307 170.331 177.307C172.101 177.307 173.571 176.902 174.741 176.092C175.941 175.252 176.781 174.142 177.261 172.762H181.671C181.011 175.132 179.691 177.067 177.711 178.567C175.731 180.037 173.271 180.772 170.331 180.772C167.991 180.772 165.891 180.247 164.031 179.197C162.201 178.147 160.761 176.662 159.711 174.742C158.661 172.792 158.136 170.542 158.136 167.992C158.136 165.442 158.646 163.207 159.666 161.287C160.686 159.367 162.111 157.897 163.941 156.877C165.801 155.827 167.931 155.302 170.331 155.302C172.671 155.302 174.741 155.812 176.541 156.832C178.341 157.852 179.721 159.262 180.681 161.062C181.671 162.832 182.166 164.842 182.166 167.092ZM177.936 166.237C177.936 164.677 177.591 163.342 176.901 162.232C176.211 161.092 175.266 160.237 174.066 159.667C172.896 159.067 171.591 158.767 170.151 158.767C168.081 158.767 166.311 159.427 164.841 160.747C163.401 162.067 162.576 163.897 162.366 166.237H177.936ZM199.586 155.257C202.586 155.257 205.016 156.172 206.876 158.002C208.736 159.802 209.666 162.412 209.666 165.832V180.367H205.616V166.417C205.616 163.957 205.001 162.082 203.771 160.792C202.541 159.472 200.861 158.812 198.731 158.812C196.571 158.812 194.846 159.487 193.556 160.837C192.296 162.187 191.666 164.152 191.666 166.732V180.367H187.571V155.707H191.666V159.217C192.476 157.957 193.571 156.982 194.951 156.292C196.361 155.602 197.906 155.257 199.586 155.257ZM214.826 167.947C214.826 165.427 215.336 163.222 216.356 161.332C217.376 159.412 218.771 157.927 220.541 156.877C222.341 155.827 224.351 155.302 226.571 155.302C228.491 155.302 230.276 155.752 231.926 156.652C233.576 157.522 234.836 158.677 235.706 160.117V147.067H239.846V180.367H235.706V175.732C234.896 177.202 233.696 178.417 232.106 179.377C230.516 180.307 228.656 180.772 226.526 180.772C224.336 180.772 222.341 180.232 220.541 179.152C218.771 178.072 217.376 176.557 216.356 174.607C215.336 172.657 214.826 170.437 214.826 167.947ZM235.706 167.992C235.706 166.132 235.331 164.512 234.581 163.132C233.831 161.752 232.811 160.702 231.521 159.982C230.261 159.232 228.866 158.857 227.336 158.857C225.806 158.857 224.411 159.217 223.151 159.937C221.891 160.657 220.886 161.707 220.136 163.087C219.386 164.467 219.011 166.087 219.011 167.947C219.011 169.837 219.386 171.487 220.136 172.897C220.886 174.277 221.891 175.342 223.151 176.092C224.411 176.812 225.806 177.172 227.336 177.172C228.866 177.172 230.261 176.812 231.521 176.092C232.811 175.342 233.831 174.277 234.581 172.897C235.331 171.487 235.706 169.852 235.706 167.992ZM245.236 167.947C245.236 165.427 245.746 163.222 246.766 161.332C247.786 159.412 249.181 157.927 250.951 156.877C252.751 155.827 254.746 155.302 256.936 155.302C259.096 155.302 260.971 155.767 262.561 156.697C264.151 157.627 265.336 158.797 266.116 160.207V155.707H270.256V180.367H266.116V175.777C265.306 177.217 264.091 178.417 262.471 179.377C260.881 180.307 259.021 180.772 256.891 180.772C254.701 180.772 252.721 180.232 250.951 179.152C249.181 178.072 247.786 176.557 246.766 174.607C245.746 172.657 245.236 170.437 245.236 167.947ZM266.116 167.992C266.116 166.132 265.741 164.512 264.991 163.132C264.241 161.752 263.221 160.702 261.931 159.982C260.671 159.232 259.276 158.857 257.746 158.857C256.216 158.857 254.821 159.217 253.561 159.937C252.301 160.657 251.296 161.707 250.546 163.087C249.796 164.467 249.421 166.087 249.421 167.947C249.421 169.837 249.796 171.487 250.546 172.897C251.296 174.277 252.301 175.342 253.561 176.092C254.821 176.812 256.216 177.172 257.746 177.172C259.276 177.172 260.671 176.812 261.931 176.092C263.221 175.342 264.241 174.277 264.991 172.897C265.741 171.487 266.116 169.852 266.116 167.992ZM150.463 248.682C147.553 248.682 144.898 248.007 142.498 246.657C140.098 245.277 138.193 243.372 136.783 240.942C135.403 238.482 134.713 235.722 134.713 232.662C134.713 229.602 135.403 226.857 136.783 224.427C138.193 221.967 140.098 220.062 142.498 218.712C144.898 217.332 147.553 216.642 150.463 216.642C153.403 216.642 156.073 217.332 158.473 218.712C160.873 220.062 162.763 221.952 164.143 224.382C165.523 226.812 166.213 229.572 166.213 232.662C166.213 235.752 165.523 238.512 164.143 240.942C162.763 243.372 160.873 245.277 158.473 246.657C156.073 248.007 153.403 248.682 150.463 248.682ZM150.463 245.127C152.653 245.127 154.618 244.617 156.358 243.597C158.128 242.577 159.508 241.122 160.498 239.232C161.518 237.342 162.028 235.152 162.028 232.662C162.028 230.142 161.518 227.952 160.498 226.092C159.508 224.202 158.143 222.747 156.403 221.727C154.663 220.707 152.683 220.197 150.463 220.197C148.243 220.197 146.263 220.707 144.523 221.727C142.783 222.747 141.403 224.202 140.383 226.092C139.393 227.952 138.898 230.142 138.898 232.662C138.898 235.152 139.393 237.342 140.383 239.232C141.403 241.122 142.783 242.577 144.523 243.597C146.293 244.617 148.273 245.127 150.463 245.127ZM183.634 223.257C186.634 223.257 189.064 224.172 190.924 226.002C192.784 227.802 193.714 230.412 193.714 233.832V248.367H189.664V234.417C189.664 231.957 189.049 230.082 187.819 228.792C186.589 227.472 184.909 226.812 182.779 226.812C180.619 226.812 178.894 227.487 177.604 228.837C176.344 230.187 175.714 232.152 175.714 234.732V248.367H171.619V223.707H175.714V227.217C176.524 225.957 177.619 224.982 178.999 224.292C180.409 223.602 181.954 223.257 183.634 223.257ZM204.498 215.067V248.367H200.403V215.067H204.498ZM213.593 219.702C212.813 219.702 212.153 219.432 211.613 218.892C211.073 218.352 210.803 217.692 210.803 216.912C210.803 216.132 211.073 215.472 211.613 214.932C212.153 214.392 212.813 214.122 213.593 214.122C214.343 214.122 214.973 214.392 215.483 214.932C216.023 215.472 216.293 216.132 216.293 216.912C216.293 217.692 216.023 218.352 215.483 218.892C214.973 219.432 214.343 219.702 213.593 219.702ZM215.573 223.707V248.367H211.478V223.707H215.573ZM234.567 223.257C237.567 223.257 239.997 224.172 241.857 226.002C243.717 227.802 244.647 230.412 244.647 233.832V248.367H240.597V234.417C240.597 231.957 239.982 230.082 238.752 228.792C237.522 227.472 235.842 226.812 233.712 226.812C231.552 226.812 229.827 227.487 228.537 228.837C227.277 230.187 226.647 232.152 226.647 234.732V248.367H222.552V223.707H226.647V227.217C227.457 225.957 228.552 224.982 229.932 224.292C231.342 223.602 232.887 223.257 234.567 223.257ZM273.836 235.092C273.836 235.872 273.791 236.697 273.701 237.567H253.991C254.141 239.997 254.966 241.902 256.466 243.282C257.996 244.632 259.841 245.307 262.001 245.307C263.771 245.307 265.241 244.902 266.411 244.092C267.611 243.252 268.451 242.142 268.931 240.762H273.341C272.681 243.132 271.361 245.067 269.381 246.567C267.401 248.037 264.941 248.772 262.001 248.772C259.661 248.772 257.561 248.247 255.701 247.197C253.871 246.147 252.431 244.662 251.381 242.742C250.331 240.792 249.806 238.542 249.806 235.992C249.806 233.442 250.316 231.207 251.336 229.287C252.356 227.367 253.781 225.897 255.611 224.877C257.471 223.827 259.601 223.302 262.001 223.302C264.341 223.302 266.411 223.812 268.211 224.832C270.011 225.852 271.391 227.262 272.351 229.062C273.341 230.832 273.836 232.842 273.836 235.092ZM269.606 234.237C269.606 232.677 269.261 231.342 268.571 230.232C267.881 229.092 266.936 228.237 265.736 227.667C264.566 227.067 263.261 226.767 261.821 226.767C259.751 226.767 257.981 227.427 256.511 228.747C255.071 230.067 254.246 231.897 254.036 234.237H269.606Z" fill="#0F172A"/>
<path d="M73.9856 351.007C73.9856 353.327 73.1856 355.26 71.5856 356.807C70.0123 358.327 67.599 359.087 64.3456 359.087H58.9856V370.727H55.3456V342.847H64.3456C67.4923 342.847 69.879 343.607 71.5056 345.127C73.159 346.647 73.9856 348.607 73.9856 351.007ZM64.3456 356.087C66.3723 356.087 67.8656 355.647 68.8256 354.767C69.7856 353.887 70.2656 352.633 70.2656 351.007C70.2656 347.567 68.2923 345.847 64.3456 345.847H58.9856V356.087H64.3456ZM82.1497 352.367C82.7897 351.113 83.6964 350.14 84.8697 349.447C86.0697 348.753 87.523 348.407 89.2297 348.407V352.167H88.2697C84.1897 352.167 82.1497 354.38 82.1497 358.807V370.727H78.5097V348.807H82.1497V352.367ZM102.992 371.087C100.938 371.087 99.0716 370.62 97.3916 369.687C95.7382 368.753 94.4316 367.433 93.4716 365.727C92.5382 363.993 92.0716 361.993 92.0716 359.727C92.0716 357.487 92.5516 355.513 93.5116 353.807C94.4982 352.073 95.8316 350.753 97.5116 349.847C99.1916 348.913 101.072 348.447 103.152 348.447C105.232 348.447 107.112 348.913 108.792 349.847C110.472 350.753 111.792 352.06 112.752 353.767C113.738 355.473 114.232 357.46 114.232 359.727C114.232 361.993 113.725 363.993 112.712 365.727C111.725 367.433 110.378 368.753 108.672 369.687C106.965 370.62 105.072 371.087 102.992 371.087ZM102.992 367.887C104.298 367.887 105.525 367.58 106.672 366.967C107.818 366.353 108.738 365.433 109.432 364.207C110.152 362.98 110.512 361.487 110.512 359.727C110.512 357.967 110.165 356.473 109.472 355.247C108.778 354.02 107.872 353.113 106.752 352.527C105.632 351.913 104.418 351.607 103.112 351.607C101.778 351.607 100.552 351.913 99.4316 352.527C98.3382 353.113 97.4582 354.02 96.7916 355.247C96.1249 356.473 95.7916 357.967 95.7916 359.727C95.7916 361.513 96.1116 363.02 96.7516 364.247C97.4182 365.473 98.2982 366.393 99.3916 367.007C100.485 367.593 101.685 367.887 102.992 367.887ZM107.072 342.327L98.5516 346.887V344.167L107.072 339.167V342.327ZM130.458 370.727L125.258 362.567L120.258 370.727H116.458L123.538 359.847L116.458 348.807H120.578L125.778 356.927L130.738 348.807H134.538L127.498 359.647L134.578 370.727H130.458ZM140.038 345.247C139.345 345.247 138.758 345.007 138.278 344.527C137.798 344.047 137.558 343.46 137.558 342.767C137.558 342.073 137.798 341.487 138.278 341.007C138.758 340.527 139.345 340.287 140.038 340.287C140.705 340.287 141.265 340.527 141.718 341.007C142.198 341.487 142.438 342.073 142.438 342.767C142.438 343.46 142.198 344.047 141.718 344.527C141.265 345.007 140.705 345.247 140.038 345.247ZM141.798 348.807V370.727H138.158V348.807H141.798ZM174.362 348.407C176.069 348.407 177.589 348.767 178.922 349.487C180.255 350.18 181.309 351.233 182.082 352.647C182.855 354.06 183.242 355.78 183.242 357.807V370.727H179.642V358.327C179.642 356.14 179.095 354.473 178.002 353.327C176.935 352.153 175.482 351.567 173.642 351.567C171.749 351.567 170.242 352.18 169.122 353.407C168.002 354.607 167.442 356.353 167.442 358.647V370.727H163.842V358.327C163.842 356.14 163.295 354.473 162.202 353.327C161.135 352.153 159.682 351.567 157.842 351.567C155.949 351.567 154.442 352.18 153.322 353.407C152.202 354.607 151.642 356.353 151.642 358.647V370.727H148.002V348.807H151.642V351.967C152.362 350.82 153.322 349.94 154.522 349.327C155.749 348.713 157.095 348.407 158.562 348.407C160.402 348.407 162.029 348.82 163.442 349.647C164.855 350.473 165.909 351.687 166.602 353.287C167.215 351.74 168.229 350.54 169.642 349.687C171.055 348.833 172.629 348.407 174.362 348.407ZM187.853 359.687C187.853 357.447 188.306 355.487 189.213 353.807C190.119 352.1 191.359 350.78 192.933 349.847C194.533 348.913 196.306 348.447 198.253 348.447C200.173 348.447 201.839 348.86 203.253 349.687C204.666 350.513 205.719 351.553 206.413 352.807V348.807H210.093V370.727H206.413V366.647C205.693 367.927 204.613 368.993 203.173 369.847C201.759 370.673 200.106 371.087 198.213 371.087C196.266 371.087 194.506 370.607 192.933 369.647C191.359 368.687 190.119 367.34 189.213 365.607C188.306 363.873 187.853 361.9 187.853 359.687ZM206.413 359.727C206.413 358.073 206.079 356.633 205.413 355.407C204.746 354.18 203.839 353.247 202.693 352.607C201.573 351.94 200.333 351.607 198.973 351.607C197.613 351.607 196.373 351.927 195.253 352.567C194.133 353.207 193.239 354.14 192.573 355.367C191.906 356.593 191.573 358.033 191.573 359.687C191.573 361.367 191.906 362.833 192.573 364.087C193.239 365.313 194.133 366.26 195.253 366.927C196.373 367.567 197.613 367.887 198.973 367.887C200.333 367.887 201.573 367.567 202.693 366.927C203.839 366.26 204.746 365.313 205.413 364.087C206.079 362.833 206.413 361.38 206.413 359.727ZM242.604 348.407C244.311 348.407 245.831 348.767 247.164 349.487C248.497 350.18 249.551 351.233 250.324 352.647C251.097 354.06 251.484 355.78 251.484 357.807V370.727H247.884V358.327C247.884 356.14 247.337 354.473 246.244 353.327C245.177 352.153 243.724 351.567 241.884 351.567C239.991 351.567 238.484 352.18 237.364 353.407C236.244 354.607 235.684 356.353 235.684 358.647V370.727H232.084V358.327C232.084 356.14 231.537 354.473 230.444 353.327C229.377 352.153 227.924 351.567 226.084 351.567C224.191 351.567 222.684 352.18 221.564 353.407C220.444 354.607 219.884 356.353 219.884 358.647V370.727H216.244V348.807H219.884V351.967C220.604 350.82 221.564 349.94 222.764 349.327C223.991 348.713 225.337 348.407 226.804 348.407C228.644 348.407 230.271 348.82 231.684 349.647C233.097 350.473 234.151 351.687 234.844 353.287C235.457 351.74 236.471 350.54 237.884 349.687C239.297 348.833 240.871 348.407 242.604 348.407ZM277.455 358.927C277.455 359.62 277.415 360.353 277.335 361.127H259.815C259.948 363.287 260.682 364.98 262.015 366.207C263.375 367.407 265.015 368.007 266.935 368.007C268.508 368.007 269.815 367.647 270.855 366.927C271.922 366.18 272.668 365.193 273.095 363.967H277.015C276.428 366.073 275.255 367.793 273.495 369.127C271.735 370.433 269.548 371.087 266.935 371.087C264.855 371.087 262.988 370.62 261.335 369.687C259.708 368.753 258.428 367.433 257.495 365.727C256.562 363.993 256.095 361.993 256.095 359.727C256.095 357.46 256.548 355.473 257.455 353.767C258.362 352.06 259.628 350.753 261.255 349.847C262.908 348.913 264.802 348.447 266.935 348.447C269.015 348.447 270.855 348.9 272.455 349.807C274.055 350.713 275.282 351.967 276.135 353.567C277.015 355.14 277.455 356.927 277.455 358.927ZM273.695 358.167C273.695 356.78 273.388 355.593 272.775 354.607C272.162 353.593 271.322 352.833 270.255 352.327C269.215 351.793 268.055 351.527 266.775 351.527C264.935 351.527 263.362 352.113 262.055 353.287C260.775 354.46 260.042 356.087 259.855 358.167H273.695ZM292.94 348.407C295.606 348.407 297.766 349.22 299.42 350.847C301.073 352.447 301.9 354.767 301.9 357.807V370.727H298.3V358.327C298.3 356.14 297.753 354.473 296.66 353.327C295.566 352.153 294.073 351.567 292.18 351.567C290.26 351.567 288.726 352.167 287.58 353.367C286.46 354.567 285.9 356.313 285.9 358.607V370.727H282.26V348.807H285.9V351.927C286.62 350.807 287.593 349.94 288.82 349.327C290.073 348.713 291.446 348.407 292.94 348.407ZM312.286 351.807V364.727C312.286 365.793 312.512 366.553 312.966 367.007C313.419 367.433 314.206 367.647 315.326 367.647H318.006V370.727H314.726C312.699 370.727 311.179 370.26 310.166 369.327C309.152 368.393 308.646 366.86 308.646 364.727V351.807H305.806V348.807H308.646V343.287H312.286V348.807H318.006V351.807H312.286ZM342.416 358.927C342.416 359.62 342.376 360.353 342.296 361.127H324.776C324.909 363.287 325.643 364.98 326.976 366.207C328.336 367.407 329.976 368.007 331.896 368.007C333.469 368.007 334.776 367.647 335.816 366.927C336.883 366.18 337.629 365.193 338.056 363.967H341.976C341.389 366.073 340.216 367.793 338.456 369.127C336.696 370.433 334.509 371.087 331.896 371.087C329.816 371.087 327.949 370.62 326.296 369.687C324.669 368.753 323.389 367.433 322.456 365.727C321.523 363.993 321.056 361.993 321.056 359.727C321.056 357.46 321.509 355.473 322.416 353.767C323.323 352.06 324.589 350.753 326.216 349.847C327.869 348.913 329.763 348.447 331.896 348.447C333.976 348.447 335.816 348.9 337.416 349.807C339.016 350.713 340.243 351.967 341.096 353.567C341.976 355.14 342.416 356.927 342.416 358.927ZM338.656 358.167C338.656 356.78 338.349 355.593 337.736 354.607C337.123 353.593 336.283 352.833 335.216 352.327C334.176 351.793 333.016 351.527 331.736 351.527C329.896 351.527 328.323 352.113 327.016 353.287C325.736 354.46 325.003 356.087 324.816 358.167H338.656Z" fill="#C7D2FE"/>
</svg>
