<svg width="397" height="454" viewBox="0 0 397 454" fill="none" xmlns="http://www.w3.org/2000/svg">
<path fill-rule="evenodd" clip-rule="evenodd" d="M393.914 419.429V268.966H2.91361V419.429L2.90586 425.696C2.88877 439.515 14.0867 450.727 27.9059 450.727H198.375H368.906C382.701 450.727 393.889 439.553 393.906 425.758L393.914 419.429Z" fill="#0F172A"/>
<path d="M27.9136 118.502C14.1065 118.502 2.91361 129.695 2.91361 143.502V268.966H393.914V143.502C393.914 129.695 382.721 118.502 368.914 118.502H327.914C314.107 118.502 302.914 107.309 302.914 93.5022V74.3246C302.914 65.2454 297.991 56.8798 290.055 52.4706L209.083 7.48737C201.517 3.28405 192.315 3.2933 184.758 7.51181L104.229 52.4612C96.3167 56.8776 91.4137 65.2296 91.4137 74.2908V93.5022C91.4137 107.309 80.2208 118.502 66.4136 118.502H27.9136Z" fill="#0284C7"/>
<path d="M2.91361 268.966V419.429L2.90586 425.696C2.88877 439.515 14.0867 450.727 27.9059 450.727H198.375H368.906C382.701 450.727 393.889 439.553 393.906 425.758L393.914 419.429V268.966M2.91361 268.966V143.502C2.91361 129.695 14.1065 118.502 27.9136 118.502H66.4136C80.2208 118.502 91.4137 107.309 91.4137 93.5022V74.2908C91.4137 65.2296 96.3167 56.8776 104.229 52.4612L184.758 7.51181C192.315 3.2933 201.517 3.28405 209.083 7.48737L290.055 52.4706C297.991 56.8798 302.914 65.2454 302.914 74.3246V93.5022C302.914 107.309 314.107 118.502 327.914 118.502H368.914C382.721 118.502 393.914 129.695 393.914 143.502V268.966M2.91361 268.966H393.914" stroke="#38BDF8" stroke-width="5"/>
<path d="M115.915 90.9437C117.395 90.9437 118.688 91.2304 119.795 91.8037C120.915 92.3637 121.775 93.1771 122.375 94.2437C122.988 95.2971 123.295 96.5304 123.295 97.9437C123.295 99.3571 122.988 100.584 122.375 101.624C121.775 102.664 120.915 103.464 119.795 104.024C118.688 104.57 117.395 104.844 115.915 104.844H111.375V90.9437H115.915ZM115.915 102.984C117.542 102.984 118.788 102.544 119.655 101.664C120.522 100.784 120.955 99.5437 120.955 97.9437C120.955 96.3304 120.522 95.0704 119.655 94.1637C118.788 93.2571 117.542 92.8037 115.915 92.8037H113.655V102.984H115.915ZM127.835 92.7837V96.8637H132.635V98.7237H127.835V102.984H133.235V104.844H125.555V90.9237H133.235V92.7837H127.835ZM140.623 104.984C139.69 104.984 138.85 104.824 138.103 104.504C137.356 104.17 136.77 103.704 136.343 103.104C135.916 102.504 135.703 101.804 135.703 101.004H138.143C138.196 101.604 138.43 102.097 138.843 102.484C139.27 102.87 139.863 103.064 140.623 103.064C141.41 103.064 142.023 102.877 142.463 102.504C142.903 102.117 143.123 101.624 143.123 101.024C143.123 100.557 142.983 100.177 142.703 99.8837C142.436 99.5904 142.096 99.3637 141.683 99.2037C141.283 99.0437 140.723 98.8704 140.003 98.6837C139.096 98.4437 138.356 98.2037 137.783 97.9637C137.223 97.7104 136.743 97.3237 136.343 96.8037C135.943 96.2837 135.743 95.5904 135.743 94.7237C135.743 93.9237 135.943 93.2237 136.343 92.6237C136.743 92.0237 137.303 91.5637 138.023 91.2437C138.743 90.9237 139.576 90.7637 140.523 90.7637C141.87 90.7637 142.97 91.1037 143.823 91.7837C144.69 92.4504 145.17 93.3704 145.263 94.5437H142.743C142.703 94.0371 142.463 93.6037 142.023 93.2437C141.583 92.8837 141.003 92.7037 140.283 92.7037C139.63 92.7037 139.096 92.8704 138.683 93.2037C138.27 93.5371 138.063 94.0171 138.063 94.6437C138.063 95.0704 138.19 95.4237 138.443 95.7037C138.71 95.9704 139.043 96.1837 139.443 96.3437C139.843 96.5037 140.39 96.6771 141.083 96.8637C142.003 97.1171 142.75 97.3704 143.323 97.6237C143.91 97.8771 144.403 98.2704 144.803 98.8037C145.216 99.3237 145.423 100.024 145.423 100.904C145.423 101.61 145.23 102.277 144.843 102.904C144.47 103.53 143.916 104.037 143.183 104.424C142.463 104.797 141.61 104.984 140.623 104.984ZM156.493 102.004H150.673L149.673 104.844H147.293L152.273 90.9237H154.913L159.893 104.844H157.493L156.493 102.004ZM155.853 100.144L153.593 93.6837L151.313 100.144H155.853ZM169.279 104.844L166.079 99.2837H164.339V104.844H162.059V90.9437H166.859C167.925 90.9437 168.825 91.1304 169.559 91.5037C170.305 91.8771 170.859 92.3771 171.219 93.0037C171.592 93.6304 171.779 94.3304 171.779 95.1037C171.779 96.0104 171.512 96.8371 170.979 97.5837C170.459 98.3171 169.652 98.8171 168.559 99.0837L171.999 104.844H169.279ZM164.339 97.4637H166.859C167.712 97.4637 168.352 97.2504 168.779 96.8237C169.219 96.3971 169.439 95.8237 169.439 95.1037C169.439 94.3837 169.225 93.8237 168.799 93.4237C168.372 93.0104 167.725 92.8037 166.859 92.8037H164.339V97.4637ZM181.915 104.844L178.715 99.2837H176.975V104.844H174.695V90.9437H179.495C180.562 90.9437 181.462 91.1304 182.195 91.5037C182.942 91.8771 183.495 92.3771 183.855 93.0037C184.229 93.6304 184.415 94.3304 184.415 95.1037C184.415 96.0104 184.149 96.8371 183.615 97.5837C183.095 98.3171 182.289 98.8171 181.195 99.0837L184.635 104.844H181.915ZM176.975 97.4637H179.495C180.349 97.4637 180.989 97.2504 181.415 96.8237C181.855 96.3971 182.075 95.8237 182.075 95.1037C182.075 94.3837 181.862 93.8237 181.435 93.4237C181.009 93.0104 180.362 92.8037 179.495 92.8037H176.975V97.4637ZM193.672 104.984C192.379 104.984 191.185 104.684 190.092 104.084C189.012 103.47 188.152 102.624 187.512 101.544C186.885 100.45 186.572 99.2237 186.572 97.8637C186.572 96.5037 186.885 95.2837 187.512 94.2037C188.152 93.1237 189.012 92.2837 190.092 91.6837C191.185 91.0704 192.379 90.7637 193.672 90.7637C194.979 90.7637 196.172 91.0704 197.252 91.6837C198.345 92.2837 199.205 93.1237 199.832 94.2037C200.459 95.2837 200.772 96.5037 200.772 97.8637C200.772 99.2237 200.459 100.45 199.832 101.544C199.205 102.624 198.345 103.47 197.252 104.084C196.172 104.684 194.979 104.984 193.672 104.984ZM193.672 103.004C194.592 103.004 195.412 102.797 196.132 102.384C196.852 101.957 197.412 101.357 197.812 100.584C198.225 99.7971 198.432 98.8904 198.432 97.8637C198.432 96.8371 198.225 95.9371 197.812 95.1637C197.412 94.3904 196.852 93.7971 196.132 93.3837C195.412 92.9704 194.592 92.7637 193.672 92.7637C192.752 92.7637 191.932 92.9704 191.212 93.3837C190.492 93.7971 189.925 94.3904 189.512 95.1637C189.112 95.9371 188.912 96.8371 188.912 97.8637C188.912 98.8904 189.112 99.7971 189.512 100.584C189.925 101.357 190.492 101.957 191.212 102.384C191.932 102.797 192.752 103.004 193.672 103.004ZM205.296 103.004H209.996V104.844H203.016V90.9437H205.296V103.004ZM214.182 103.004H218.882V104.844H211.902V90.9437H214.182V103.004ZM227.129 104.984C225.836 104.984 224.642 104.684 223.549 104.084C222.469 103.47 221.609 102.624 220.969 101.544C220.342 100.45 220.029 99.2237 220.029 97.8637C220.029 96.5037 220.342 95.2837 220.969 94.2037C221.609 93.1237 222.469 92.2837 223.549 91.6837C224.642 91.0704 225.836 90.7637 227.129 90.7637C228.436 90.7637 229.629 91.0704 230.709 91.6837C231.802 92.2837 232.662 93.1237 233.289 94.2037C233.916 95.2837 234.229 96.5037 234.229 97.8637C234.229 99.2237 233.916 100.45 233.289 101.544C232.662 102.624 231.802 103.47 230.709 104.084C229.629 104.684 228.436 104.984 227.129 104.984ZM227.129 103.004C228.049 103.004 228.869 102.797 229.589 102.384C230.309 101.957 230.869 101.357 231.269 100.584C231.682 99.7971 231.889 98.8904 231.889 97.8637C231.889 96.8371 231.682 95.9371 231.269 95.1637C230.869 94.3904 230.309 93.7971 229.589 93.3837C228.869 92.9704 228.049 92.7637 227.129 92.7637C226.209 92.7637 225.389 92.9704 224.669 93.3837C223.949 93.7971 223.382 94.3904 222.969 95.1637C222.569 95.9371 222.369 96.8371 222.369 97.8637C222.369 98.8904 222.569 99.7971 222.969 100.584C223.382 101.357 223.949 101.957 224.669 102.384C225.389 102.797 226.209 103.004 227.129 103.004ZM259.768 90.9437L255.648 104.844H253.068L250.148 94.3237L247.048 104.844L244.488 104.864L240.548 90.9437H242.968L245.848 102.264L248.968 90.9437H251.528L254.428 102.204L257.328 90.9437H259.768ZM263.928 92.7837V96.8637H268.728V98.7237H263.928V102.984H269.328V104.844H261.648V90.9237H269.328V92.7837H263.928ZM279.577 97.7037C280.323 97.8371 280.957 98.2304 281.477 98.8837C281.997 99.5371 282.257 100.277 282.257 101.104C282.257 101.81 282.07 102.45 281.697 103.024C281.337 103.584 280.81 104.03 280.117 104.364C279.423 104.684 278.617 104.844 277.697 104.844H272.137V90.9437H277.437C278.383 90.9437 279.197 91.1037 279.877 91.4237C280.557 91.7437 281.07 92.1771 281.417 92.7237C281.763 93.2571 281.937 93.8571 281.937 94.5237C281.937 95.3237 281.723 95.9904 281.297 96.5237C280.87 97.0571 280.297 97.4504 279.577 97.7037ZM274.417 96.7837H277.237C277.983 96.7837 278.563 96.6171 278.977 96.2837C279.403 95.9371 279.617 95.4437 279.617 94.8037C279.617 94.1771 279.403 93.6904 278.977 93.3437C278.563 92.9837 277.983 92.8037 277.237 92.8037H274.417V96.7837ZM277.497 102.984C278.27 102.984 278.877 102.797 279.317 102.424C279.757 102.05 279.977 101.53 279.977 100.864C279.977 100.184 279.743 99.6437 279.277 99.2437C278.81 98.8437 278.19 98.6437 277.417 98.6437H274.417V102.984H277.497Z" fill="#0F172A"/>
<path d="M149.048 173.118C149.048 175.322 148.288 177.158 146.768 178.628C145.273 180.072 142.981 180.794 139.89 180.794H134.798V191.852H131.34V165.366H139.89C142.879 165.366 145.147 166.088 146.692 167.532C148.263 168.976 149.048 170.838 149.048 173.118ZM139.89 177.944C141.815 177.944 143.234 177.526 144.146 176.69C145.058 175.854 145.514 174.663 145.514 173.118C145.514 169.85 143.639 168.216 139.89 168.216H134.798V177.944H139.89ZM152.054 181.364C152.054 179.236 152.485 177.374 153.346 175.778C154.207 174.156 155.385 172.902 156.88 172.016C158.4 171.129 160.085 170.686 161.934 170.686C163.758 170.686 165.341 171.078 166.684 171.864C168.027 172.649 169.027 173.637 169.686 174.828V171.028H173.182V191.852H169.686V187.976C169.002 189.192 167.976 190.205 166.608 191.016C165.265 191.801 163.695 192.194 161.896 192.194C160.047 192.194 158.375 191.738 156.88 190.826C155.385 189.914 154.207 188.634 153.346 186.988C152.485 185.341 152.054 183.466 152.054 181.364ZM169.686 181.402C169.686 179.831 169.369 178.463 168.736 177.298C168.103 176.132 167.241 175.246 166.152 174.638C165.088 174.004 163.91 173.688 162.618 173.688C161.326 173.688 160.148 173.992 159.084 174.6C158.02 175.208 157.171 176.094 156.538 177.26C155.905 178.425 155.588 179.793 155.588 181.364C155.588 182.96 155.905 184.353 156.538 185.544C157.171 186.709 158.02 187.608 159.084 188.242C160.148 188.85 161.326 189.154 162.618 189.154C163.91 189.154 165.088 188.85 166.152 188.242C167.241 187.608 168.103 186.709 168.736 185.544C169.369 184.353 169.686 182.972 169.686 181.402ZM166.988 165.138L158.894 169.47V166.886L166.988 162.136V165.138ZM187.614 170.686C189.412 170.686 190.983 171.078 192.326 171.864C193.694 172.649 194.707 173.637 195.366 174.828V171.028H198.862V192.308C198.862 194.208 198.456 195.892 197.646 197.362C196.835 198.856 195.67 200.022 194.15 200.858C192.655 201.694 190.907 202.112 188.906 202.112C186.17 202.112 183.89 201.466 182.066 200.174C180.242 198.882 179.165 197.121 178.836 194.892H182.256C182.636 196.158 183.421 197.172 184.612 197.932C185.802 198.717 187.234 199.11 188.906 199.11C190.806 199.11 192.351 198.514 193.542 197.324C194.758 196.133 195.366 194.461 195.366 192.308V187.938C194.682 189.154 193.668 190.167 192.326 190.978C190.983 191.788 189.412 192.194 187.614 192.194C185.764 192.194 184.08 191.738 182.56 190.826C181.065 189.914 179.887 188.634 179.026 186.988C178.164 185.341 177.734 183.466 177.734 181.364C177.734 179.236 178.164 177.374 179.026 175.778C179.887 174.156 181.065 172.902 182.56 172.016C184.08 171.129 185.764 170.686 187.614 170.686ZM195.366 181.402C195.366 179.831 195.049 178.463 194.416 177.298C193.782 176.132 192.921 175.246 191.832 174.638C190.768 174.004 189.59 173.688 188.298 173.688C187.006 173.688 185.828 173.992 184.764 174.6C183.7 175.208 182.851 176.094 182.218 177.26C181.584 178.425 181.268 179.793 181.268 181.364C181.268 182.96 181.584 184.353 182.218 185.544C182.851 186.709 183.7 187.608 184.764 188.242C185.828 188.85 187.006 189.154 188.298 189.154C189.59 189.154 190.768 188.85 191.832 188.242C192.921 187.608 193.782 186.709 194.416 185.544C195.049 184.353 195.366 182.972 195.366 181.402ZM206.491 167.646C205.833 167.646 205.275 167.418 204.819 166.962C204.363 166.506 204.135 165.948 204.135 165.29C204.135 164.631 204.363 164.074 204.819 163.618C205.275 163.162 205.833 162.934 206.491 162.934C207.125 162.934 207.657 163.162 208.087 163.618C208.543 164.074 208.771 164.631 208.771 165.29C208.771 165.948 208.543 166.506 208.087 166.962C207.657 167.418 207.125 167.646 206.491 167.646ZM208.163 171.028V191.852H204.705V171.028H208.163ZM224.203 170.648C226.736 170.648 228.788 171.42 230.359 172.966C231.93 174.486 232.715 176.69 232.715 179.578V191.852H229.295V180.072C229.295 177.994 228.776 176.411 227.737 175.322C226.698 174.207 225.28 173.65 223.481 173.65C221.657 173.65 220.2 174.22 219.111 175.36C218.047 176.5 217.515 178.159 217.515 180.338V191.852H214.057V171.028H217.515V173.992C218.199 172.928 219.124 172.104 220.289 171.522C221.48 170.939 222.784 170.648 224.203 170.648ZM237.072 181.364C237.072 179.236 237.502 177.374 238.364 175.778C239.225 174.156 240.403 172.902 241.898 172.016C243.418 171.129 245.102 170.686 246.952 170.686C248.776 170.686 250.359 171.078 251.702 171.864C253.044 172.649 254.045 173.637 254.704 174.828V171.028H258.2V191.852H254.704V187.976C254.02 189.192 252.994 190.205 251.626 191.016C250.283 191.801 248.712 192.194 246.914 192.194C245.064 192.194 243.392 191.738 241.898 190.826C240.403 189.914 239.225 188.634 238.364 186.988C237.502 185.341 237.072 183.466 237.072 181.364ZM254.704 181.402C254.704 179.831 254.387 178.463 253.754 177.298C253.12 176.132 252.259 175.246 251.17 174.638C250.106 174.004 248.928 173.688 247.636 173.688C246.344 173.688 245.166 173.992 244.102 174.6C243.038 175.208 242.189 176.094 241.556 177.26C240.922 178.425 240.606 179.793 240.606 181.364C240.606 182.96 240.922 184.353 241.556 185.544C242.189 186.709 243.038 187.608 244.102 188.242C245.166 188.85 246.344 189.154 247.636 189.154C248.928 189.154 250.106 188.85 251.17 188.242C252.259 187.608 253.12 186.709 253.754 185.544C254.387 184.353 254.704 182.972 254.704 181.402ZM41.5498 242.962H29.9978L27.8698 248.852H24.2218L33.7978 222.518H37.7878L47.3258 248.852H43.6778L41.5498 242.962ZM40.5618 240.15L35.7738 226.774L30.9858 240.15H40.5618ZM69.9672 228.028V248.852H66.5092V245.774C65.8506 246.838 64.9259 247.674 63.7352 248.282C62.5699 248.864 61.2779 249.156 59.8592 249.156C58.2379 249.156 56.7812 248.826 55.4892 248.168C54.1972 247.484 53.1712 246.47 52.4112 245.128C51.6766 243.785 51.3092 242.151 51.3092 240.226V228.028H54.7292V239.77C54.7292 241.822 55.2486 243.405 56.2872 244.52C57.3259 245.609 58.7446 246.154 60.5432 246.154C62.3926 246.154 63.8492 245.584 64.9132 244.444C65.9772 243.304 66.5092 241.644 66.5092 239.466V228.028H69.9672ZM80.0239 230.878V243.152C80.0239 244.165 80.2392 244.887 80.6699 245.318C81.1006 245.723 81.8479 245.926 82.9119 245.926H85.4579V248.852H82.3419C80.4165 248.852 78.9725 248.408 78.0099 247.522C77.0472 246.635 76.5659 245.178 76.5659 243.152V230.878H73.8679V228.028H76.5659V222.784H80.0239V228.028H85.4579V230.878H80.0239ZM98.7297 249.194C96.779 249.194 95.0057 248.75 93.4097 247.864C91.839 246.977 90.5977 245.723 89.6857 244.102C88.799 242.455 88.3557 240.555 88.3557 238.402C88.3557 236.274 88.8117 234.399 89.7237 232.778C90.661 231.131 91.9277 229.877 93.5237 229.016C95.1197 228.129 96.9057 227.686 98.8817 227.686C100.858 227.686 102.644 228.129 104.24 229.016C105.836 229.877 107.09 231.118 108.002 232.74C108.939 234.361 109.408 236.248 109.408 238.402C109.408 240.555 108.926 242.455 107.964 244.102C107.026 245.723 105.747 246.977 104.126 247.864C102.504 248.75 100.706 249.194 98.7297 249.194ZM98.7297 246.154C99.971 246.154 101.136 245.862 102.226 245.28C103.315 244.697 104.189 243.823 104.848 242.658C105.532 241.492 105.874 240.074 105.874 238.402C105.874 236.73 105.544 235.311 104.886 234.146C104.227 232.98 103.366 232.119 102.302 231.562C101.238 230.979 100.085 230.688 98.8437 230.688C97.577 230.688 96.4117 230.979 95.3477 231.562C94.309 232.119 93.473 232.98 92.8397 234.146C92.2063 235.311 91.8897 236.73 91.8897 238.402C91.8897 240.099 92.1937 241.53 92.8017 242.696C93.435 243.861 94.271 244.735 95.3097 245.318C96.3483 245.875 97.4883 246.154 98.7297 246.154ZM112.662 238.364C112.662 236.236 113.093 234.374 113.954 232.778C114.816 231.156 115.994 229.902 117.488 229.016C119.008 228.129 120.693 227.686 122.542 227.686C124.366 227.686 125.95 228.078 127.292 228.864C128.635 229.649 129.636 230.637 130.294 231.828V228.028H133.79V248.852H130.294V244.976C129.61 246.192 128.584 247.205 127.216 248.016C125.874 248.801 124.303 249.194 122.504 249.194C120.655 249.194 118.983 248.738 117.488 247.826C115.994 246.914 114.816 245.634 113.954 243.988C113.093 242.341 112.662 240.466 112.662 238.364ZM130.294 238.402C130.294 236.831 129.978 235.463 129.344 234.298C128.711 233.132 127.85 232.246 126.76 231.638C125.696 231.004 124.518 230.688 123.226 230.688C121.934 230.688 120.756 230.992 119.692 231.6C118.628 232.208 117.78 233.094 117.146 234.26C116.513 235.425 116.196 236.793 116.196 238.364C116.196 239.96 116.513 241.353 117.146 242.544C117.78 243.709 118.628 244.608 119.692 245.242C120.756 245.85 121.934 246.154 123.226 246.154C124.518 246.154 125.696 245.85 126.76 245.242C127.85 244.608 128.711 243.709 129.344 242.544C129.978 241.353 130.294 239.972 130.294 238.402ZM138.342 238.364C138.342 236.236 138.773 234.374 139.634 232.778C140.495 231.156 141.673 229.902 143.168 229.016C144.688 228.129 146.385 227.686 148.26 227.686C149.881 227.686 151.389 228.066 152.782 228.826C154.175 229.56 155.239 230.536 155.974 231.752V220.732H159.47V248.852H155.974V244.938C155.29 246.179 154.277 247.205 152.934 248.016C151.591 248.801 150.021 249.194 148.222 249.194C146.373 249.194 144.688 248.738 143.168 247.826C141.673 246.914 140.495 245.634 139.634 243.988C138.773 242.341 138.342 240.466 138.342 238.364ZM155.974 238.402C155.974 236.831 155.657 235.463 155.024 234.298C154.391 233.132 153.529 232.246 152.44 231.638C151.376 231.004 150.198 230.688 148.906 230.688C147.614 230.688 146.436 230.992 145.372 231.6C144.308 232.208 143.459 233.094 142.826 234.26C142.193 235.425 141.876 236.793 141.876 238.364C141.876 239.96 142.193 241.353 142.826 242.544C143.459 243.709 144.308 244.608 145.372 245.242C146.436 245.85 147.614 246.154 148.906 246.154C150.198 246.154 151.376 245.85 152.44 245.242C153.529 244.608 154.391 243.709 155.024 242.544C155.657 241.353 155.974 239.972 155.974 238.402ZM190.356 227.648C191.977 227.648 193.421 227.99 194.688 228.674C195.954 229.332 196.955 230.333 197.69 231.676C198.424 233.018 198.792 234.652 198.792 236.578V248.852H195.372V237.072C195.372 234.994 194.852 233.411 193.814 232.322C192.8 231.207 191.42 230.65 189.672 230.65C187.873 230.65 186.442 231.232 185.378 232.398C184.314 233.538 183.782 235.197 183.782 237.376V248.852H180.362V237.072C180.362 234.994 179.842 233.411 178.804 232.322C177.79 231.207 176.41 230.65 174.662 230.65C172.863 230.65 171.432 231.232 170.368 232.398C169.304 233.538 168.772 235.197 168.772 237.376V248.852H165.314V228.028H168.772V231.03C169.456 229.94 170.368 229.104 171.508 228.522C172.673 227.939 173.952 227.648 175.346 227.648C177.094 227.648 178.639 228.04 179.982 228.826C181.324 229.611 182.325 230.764 182.984 232.284C183.566 230.814 184.529 229.674 185.872 228.864C187.214 228.053 188.709 227.648 190.356 227.648ZM206.25 224.646C205.591 224.646 205.034 224.418 204.578 223.962C204.122 223.506 203.894 222.948 203.894 222.29C203.894 221.631 204.122 221.074 204.578 220.618C205.034 220.162 205.591 219.934 206.25 219.934C206.883 219.934 207.415 220.162 207.846 220.618C208.302 221.074 208.53 221.631 208.53 222.29C208.53 222.948 208.302 223.506 207.846 223.962C207.415 224.418 206.883 224.646 206.25 224.646ZM207.922 228.028V248.852H204.464V228.028H207.922ZM223.962 227.648C226.495 227.648 228.547 228.42 230.118 229.966C231.688 231.486 232.474 233.69 232.474 236.578V248.852H229.054V237.072C229.054 234.994 228.534 233.411 227.496 232.322C226.457 231.207 225.038 230.65 223.24 230.65C221.416 230.65 219.959 231.22 218.87 232.36C217.806 233.5 217.274 235.159 217.274 237.338V248.852H213.816V228.028H217.274V230.992C217.958 229.928 218.882 229.104 220.048 228.522C221.238 227.939 222.543 227.648 223.962 227.648ZM239.908 224.646C239.25 224.646 238.692 224.418 238.236 223.962C237.78 223.506 237.552 222.948 237.552 222.29C237.552 221.631 237.78 221.074 238.236 220.618C238.692 220.162 239.25 219.934 239.908 219.934C240.542 219.934 241.074 220.162 241.504 220.618C241.96 221.074 242.188 221.631 242.188 222.29C242.188 222.948 241.96 223.506 241.504 223.962C241.074 224.418 240.542 224.646 239.908 224.646ZM241.58 228.028V248.852H238.122V228.028H241.58ZM254.846 249.194C253.25 249.194 251.819 248.928 250.552 248.396C249.285 247.838 248.285 247.078 247.55 246.116C246.815 245.128 246.41 244 246.334 242.734H249.906C250.007 243.772 250.489 244.621 251.35 245.28C252.237 245.938 253.389 246.268 254.808 246.268C256.125 246.268 257.164 245.976 257.924 245.394C258.684 244.811 259.064 244.076 259.064 243.19C259.064 242.278 258.659 241.606 257.848 241.176C257.037 240.72 255.783 240.276 254.086 239.846C252.541 239.44 251.274 239.035 250.286 238.63C249.323 238.199 248.487 237.578 247.778 236.768C247.094 235.932 246.752 234.842 246.752 233.5C246.752 232.436 247.069 231.46 247.702 230.574C248.335 229.687 249.235 228.99 250.4 228.484C251.565 227.952 252.895 227.686 254.39 227.686C256.695 227.686 258.557 228.268 259.976 229.434C261.395 230.599 262.155 232.195 262.256 234.222H258.798C258.722 233.132 258.279 232.258 257.468 231.6C256.683 230.941 255.619 230.612 254.276 230.612C253.035 230.612 252.047 230.878 251.312 231.41C250.577 231.942 250.21 232.638 250.21 233.5C250.21 234.184 250.425 234.754 250.856 235.21C251.312 235.64 251.869 235.995 252.528 236.274C253.212 236.527 254.149 236.818 255.34 237.148C256.835 237.553 258.051 237.958 258.988 238.364C259.925 238.744 260.723 239.326 261.382 240.112C262.066 240.897 262.421 241.923 262.446 243.19C262.446 244.33 262.129 245.356 261.496 246.268C260.863 247.18 259.963 247.902 258.798 248.434C257.658 248.94 256.341 249.194 254.846 249.194ZM271.545 230.878V243.152C271.545 244.165 271.761 244.887 272.191 245.318C272.622 245.723 273.369 245.926 274.433 245.926H276.979V248.852H273.863C271.938 248.852 270.494 248.408 269.531 247.522C268.569 246.635 268.087 245.178 268.087 243.152V230.878H265.389V228.028H268.087V222.784H271.545V228.028H276.979V230.878H271.545ZM284.627 231.41C285.235 230.219 286.096 229.294 287.211 228.636C288.351 227.977 289.732 227.648 291.353 227.648V231.22H290.441C286.565 231.22 284.627 233.322 284.627 237.528V248.852H281.169V228.028H284.627V231.41ZM294.053 238.364C294.053 236.236 294.484 234.374 295.345 232.778C296.206 231.156 297.384 229.902 298.879 229.016C300.399 228.129 302.084 227.686 303.933 227.686C305.757 227.686 307.34 228.078 308.683 228.864C310.026 229.649 311.026 230.637 311.685 231.828V228.028H315.181V248.852H311.685V244.976C311.001 246.192 309.975 247.205 308.607 248.016C307.264 248.801 305.694 249.194 303.895 249.194C302.046 249.194 300.374 248.738 298.879 247.826C297.384 246.914 296.206 245.634 295.345 243.988C294.484 242.341 294.053 240.466 294.053 238.364ZM311.685 238.402C311.685 236.831 311.368 235.463 310.735 234.298C310.102 233.132 309.24 232.246 308.151 231.638C307.087 231.004 305.909 230.688 304.617 230.688C303.325 230.688 302.147 230.992 301.083 231.6C300.019 232.208 299.17 233.094 298.537 234.26C297.904 235.425 297.587 236.793 297.587 238.364C297.587 239.96 297.904 241.353 298.537 242.544C299.17 243.709 300.019 244.608 301.083 245.242C302.147 245.85 303.325 246.154 304.617 246.154C305.909 246.154 307.087 245.85 308.151 245.242C309.24 244.608 310.102 243.709 310.735 242.544C311.368 241.353 311.685 239.972 311.685 238.402ZM324.483 231.904C325.192 230.662 326.231 229.649 327.599 228.864C328.967 228.078 330.525 227.686 332.273 227.686C334.147 227.686 335.832 228.129 337.327 229.016C338.821 229.902 339.999 231.156 340.861 232.778C341.722 234.374 342.153 236.236 342.153 238.364C342.153 240.466 341.722 242.341 340.861 243.988C339.999 245.634 338.809 246.914 337.289 247.826C335.794 248.738 334.122 249.194 332.273 249.194C330.474 249.194 328.891 248.801 327.523 248.016C326.18 247.23 325.167 246.23 324.483 245.014V248.852H321.025V220.732H324.483V231.904ZM338.619 238.364C338.619 236.793 338.302 235.425 337.669 234.26C337.035 233.094 336.174 232.208 335.085 231.6C334.021 230.992 332.843 230.688 331.551 230.688C330.284 230.688 329.106 231.004 328.017 231.638C326.953 232.246 326.091 233.145 325.433 234.336C324.799 235.501 324.483 236.856 324.483 238.402C324.483 239.972 324.799 241.353 325.433 242.544C326.091 243.709 326.953 244.608 328.017 245.242C329.106 245.85 330.284 246.154 331.551 246.154C332.843 246.154 334.021 245.85 335.085 245.242C336.174 244.608 337.035 243.709 337.669 242.544C338.302 241.353 338.619 239.96 338.619 238.364ZM350.162 220.732V248.852H346.704V220.732H350.162ZM375.056 237.642C375.056 238.3 375.018 238.997 374.942 239.732H358.298C358.425 241.784 359.121 243.392 360.388 244.558C361.68 245.698 363.238 246.268 365.062 246.268C366.557 246.268 367.798 245.926 368.786 245.242C369.799 244.532 370.509 243.595 370.914 242.43H374.638C374.081 244.431 372.966 246.065 371.294 247.332C369.622 248.573 367.545 249.194 365.062 249.194C363.086 249.194 361.313 248.75 359.742 247.864C358.197 246.977 356.981 245.723 356.094 244.102C355.207 242.455 354.764 240.555 354.764 238.402C354.764 236.248 355.195 234.361 356.056 232.74C356.917 231.118 358.121 229.877 359.666 229.016C361.237 228.129 363.035 227.686 365.062 227.686C367.038 227.686 368.786 228.116 370.306 228.978C371.826 229.839 372.991 231.03 373.802 232.55C374.638 234.044 375.056 235.742 375.056 237.642ZM371.484 236.92C371.484 235.602 371.193 234.475 370.61 233.538C370.027 232.575 369.229 231.853 368.216 231.372C367.228 230.865 366.126 230.612 364.91 230.612C363.162 230.612 361.667 231.169 360.426 232.284C359.21 233.398 358.513 234.944 358.336 236.92H371.484Z" fill="#0F172A"/>
<path d="M74.095 350.186C74.095 352.506 73.295 354.44 71.695 355.986C70.1217 357.506 67.7083 358.266 64.455 358.266H59.095V369.906H55.455V342.026H64.455C67.6017 342.026 69.9883 342.786 71.615 344.306C73.2683 345.826 74.095 347.786 74.095 350.186ZM64.455 355.266C66.4817 355.266 67.975 354.826 68.935 353.946C69.895 353.066 70.375 351.813 70.375 350.186C70.375 346.746 68.4017 345.026 64.455 345.026H59.095V355.266H64.455ZM82.2591 351.546C82.8991 350.293 83.8057 349.32 84.9791 348.626C86.1791 347.933 87.6324 347.586 89.3391 347.586V351.346H88.3791C84.2991 351.346 82.2591 353.56 82.2591 357.986V369.906H78.6191V347.986H82.2591V351.546ZM103.101 370.266C101.048 370.266 99.1809 369.8 97.5009 368.866C95.8476 367.933 94.5409 366.613 93.5809 364.906C92.6476 363.173 92.1809 361.173 92.1809 358.906C92.1809 356.666 92.6609 354.693 93.6209 352.986C94.6076 351.253 95.9409 349.933 97.6209 349.026C99.3009 348.093 101.181 347.626 103.261 347.626C105.341 347.626 107.221 348.093 108.901 349.026C110.581 349.933 111.901 351.24 112.861 352.946C113.848 354.653 114.341 356.64 114.341 358.906C114.341 361.173 113.834 363.173 112.821 364.906C111.834 366.613 110.488 367.933 108.781 368.866C107.074 369.8 105.181 370.266 103.101 370.266ZM103.101 367.066C104.408 367.066 105.634 366.76 106.781 366.146C107.928 365.533 108.848 364.613 109.541 363.386C110.261 362.16 110.621 360.666 110.621 358.906C110.621 357.146 110.274 355.653 109.581 354.426C108.888 353.2 107.981 352.293 106.861 351.706C105.741 351.093 104.528 350.786 103.221 350.786C101.888 350.786 100.661 351.093 99.5409 351.706C98.4476 352.293 97.5676 353.2 96.9009 354.426C96.2343 355.653 95.9009 357.146 95.9009 358.906C95.9009 360.693 96.2209 362.2 96.8609 363.426C97.5276 364.653 98.4076 365.573 99.5009 366.186C100.594 366.773 101.794 367.066 103.101 367.066ZM107.181 341.506L98.6609 346.066V343.346L107.181 338.346V341.506ZM130.567 369.906L125.367 361.746L120.367 369.906H116.567L123.647 359.026L116.567 347.986H120.687L125.887 356.106L130.847 347.986H134.647L127.607 358.826L134.687 369.906H130.567ZM140.148 344.426C139.454 344.426 138.868 344.186 138.388 343.706C137.908 343.226 137.668 342.64 137.668 341.946C137.668 341.253 137.908 340.666 138.388 340.186C138.868 339.706 139.454 339.466 140.148 339.466C140.814 339.466 141.374 339.706 141.828 340.186C142.308 340.666 142.548 341.253 142.548 341.946C142.548 342.64 142.308 343.226 141.828 343.706C141.374 344.186 140.814 344.426 140.148 344.426ZM141.908 347.986V369.906H138.268V347.986H141.908ZM174.471 347.586C176.178 347.586 177.698 347.946 179.031 348.666C180.365 349.36 181.418 350.413 182.191 351.826C182.965 353.24 183.351 354.96 183.351 356.986V369.906H179.751V357.506C179.751 355.32 179.205 353.653 178.111 352.506C177.045 351.333 175.591 350.746 173.751 350.746C171.858 350.746 170.351 351.36 169.231 352.586C168.111 353.786 167.551 355.533 167.551 357.826V369.906H163.951V357.506C163.951 355.32 163.405 353.653 162.311 352.506C161.245 351.333 159.791 350.746 157.951 350.746C156.058 350.746 154.551 351.36 153.431 352.586C152.311 353.786 151.751 355.533 151.751 357.826V369.906H148.111V347.986H151.751V351.146C152.471 350 153.431 349.12 154.631 348.506C155.858 347.893 157.205 347.586 158.671 347.586C160.511 347.586 162.138 348 163.551 348.826C164.965 349.653 166.018 350.866 166.711 352.466C167.325 350.92 168.338 349.72 169.751 348.866C171.165 348.013 172.738 347.586 174.471 347.586ZM187.962 358.866C187.962 356.626 188.416 354.666 189.322 352.986C190.229 351.28 191.469 349.96 193.042 349.026C194.642 348.093 196.416 347.626 198.362 347.626C200.282 347.626 201.949 348.04 203.362 348.866C204.776 349.693 205.829 350.733 206.522 351.986V347.986H210.202V369.906H206.522V365.826C205.802 367.106 204.722 368.173 203.282 369.026C201.869 369.853 200.216 370.266 198.322 370.266C196.376 370.266 194.616 369.786 193.042 368.826C191.469 367.866 190.229 366.52 189.322 364.786C188.416 363.053 187.962 361.08 187.962 358.866ZM206.522 358.906C206.522 357.253 206.189 355.813 205.522 354.586C204.856 353.36 203.949 352.426 202.802 351.786C201.682 351.12 200.442 350.786 199.082 350.786C197.722 350.786 196.482 351.106 195.362 351.746C194.242 352.386 193.349 353.32 192.682 354.546C192.016 355.773 191.682 357.213 191.682 358.866C191.682 360.546 192.016 362.013 192.682 363.266C193.349 364.493 194.242 365.44 195.362 366.106C196.482 366.746 197.722 367.066 199.082 367.066C200.442 367.066 201.682 366.746 202.802 366.106C203.949 365.44 204.856 364.493 205.522 363.266C206.189 362.013 206.522 360.56 206.522 358.906ZM242.713 347.586C244.42 347.586 245.94 347.946 247.273 348.666C248.607 349.36 249.66 350.413 250.433 351.826C251.207 353.24 251.593 354.96 251.593 356.986V369.906H247.993V357.506C247.993 355.32 247.447 353.653 246.353 352.506C245.287 351.333 243.833 350.746 241.993 350.746C240.1 350.746 238.593 351.36 237.473 352.586C236.353 353.786 235.793 355.533 235.793 357.826V369.906H232.193V357.506C232.193 355.32 231.647 353.653 230.553 352.506C229.487 351.333 228.033 350.746 226.193 350.746C224.3 350.746 222.793 351.36 221.673 352.586C220.553 353.786 219.993 355.533 219.993 357.826V369.906H216.353V347.986H219.993V351.146C220.713 350 221.673 349.12 222.873 348.506C224.1 347.893 225.447 347.586 226.913 347.586C228.753 347.586 230.38 348 231.793 348.826C233.207 349.653 234.26 350.866 234.953 352.466C235.567 350.92 236.58 349.72 237.993 348.866C239.407 348.013 240.98 347.586 242.713 347.586ZM277.564 358.106C277.564 358.8 277.524 359.533 277.444 360.306H259.924C260.058 362.466 260.791 364.16 262.124 365.386C263.484 366.586 265.124 367.186 267.044 367.186C268.618 367.186 269.924 366.826 270.964 366.106C272.031 365.36 272.778 364.373 273.204 363.146H277.124C276.538 365.253 275.364 366.973 273.604 368.306C271.844 369.613 269.658 370.266 267.044 370.266C264.964 370.266 263.098 369.8 261.444 368.866C259.818 367.933 258.538 366.613 257.604 364.906C256.671 363.173 256.204 361.173 256.204 358.906C256.204 356.64 256.658 354.653 257.564 352.946C258.471 351.24 259.738 349.933 261.364 349.026C263.018 348.093 264.911 347.626 267.044 347.626C269.124 347.626 270.964 348.08 272.564 348.986C274.164 349.893 275.391 351.146 276.244 352.746C277.124 354.32 277.564 356.106 277.564 358.106ZM273.804 357.346C273.804 355.96 273.498 354.773 272.884 353.786C272.271 352.773 271.431 352.013 270.364 351.506C269.324 350.973 268.164 350.706 266.884 350.706C265.044 350.706 263.471 351.293 262.164 352.466C260.884 353.64 260.151 355.266 259.964 357.346H273.804ZM293.049 347.586C295.716 347.586 297.876 348.4 299.529 350.026C301.182 351.626 302.009 353.946 302.009 356.986V369.906H298.409V357.506C298.409 355.32 297.862 353.653 296.769 352.506C295.676 351.333 294.182 350.746 292.289 350.746C290.369 350.746 288.836 351.346 287.689 352.546C286.569 353.746 286.009 355.493 286.009 357.786V369.906H282.369V347.986H286.009V351.106C286.729 349.986 287.702 349.12 288.929 348.506C290.182 347.893 291.556 347.586 293.049 347.586ZM312.395 350.986V363.906C312.395 364.973 312.622 365.733 313.075 366.186C313.528 366.613 314.315 366.826 315.435 366.826H318.115V369.906H314.835C312.808 369.906 311.288 369.44 310.275 368.506C309.262 367.573 308.755 366.04 308.755 363.906V350.986H305.915V347.986H308.755V342.466H312.395V347.986H318.115V350.986H312.395ZM342.525 358.106C342.525 358.8 342.485 359.533 342.405 360.306H324.885C325.019 362.466 325.752 364.16 327.085 365.386C328.445 366.586 330.085 367.186 332.005 367.186C333.579 367.186 334.885 366.826 335.925 366.106C336.992 365.36 337.739 364.373 338.165 363.146H342.085C341.499 365.253 340.325 366.973 338.565 368.306C336.805 369.613 334.619 370.266 332.005 370.266C329.925 370.266 328.059 369.8 326.405 368.866C324.779 367.933 323.499 366.613 322.565 364.906C321.632 363.173 321.165 361.173 321.165 358.906C321.165 356.64 321.619 354.653 322.525 352.946C323.432 351.24 324.699 349.933 326.325 349.026C327.979 348.093 329.872 347.626 332.005 347.626C334.085 347.626 335.925 348.08 337.525 348.986C339.125 349.893 340.352 351.146 341.205 352.746C342.085 354.32 342.525 356.106 342.525 358.106ZM338.765 357.346C338.765 355.96 338.459 354.773 337.845 353.786C337.232 352.773 336.392 352.013 335.325 351.506C334.285 350.973 333.125 350.706 331.845 350.706C330.005 350.706 328.432 351.293 327.125 352.466C325.845 353.64 325.112 355.266 324.925 357.346H338.765Z" fill="#C7D2FE"/>
</svg>
