<svg width="399" height="376" viewBox="0 0 399 376" fill="none" xmlns="http://www.w3.org/2000/svg">
<path d="M228.822 313.138L228.822 346.783L199.685 363.606L170.548 346.783L170.548 313.138L199.685 296.316L228.822 313.138Z" fill="#0EA5E9"/>
<path d="M225.316 344.403L225.316 315.164L199.83 300.449L199.795 329.958L199.839 330.035L225.316 344.403Z" fill="#1E1E1E"/>
<path d="M225.316 344.624L199.698 330.177L174.414 344.774L199.769 359.413L225.316 344.663L225.316 344.624Z" fill="#1E1E1E"/>
<path d="M174.222 315.164L199.637 300.49L199.602 330.01L174.222 344.663L174.222 315.164Z" fill="#1E1E1E"/>
<path d="M259.097 136.791L259.097 170.436L229.959 187.258L200.822 170.436L200.822 136.791L229.959 119.969L259.097 136.791Z" fill="#1E1E1E"/>
<path d="M255.59 168.055L255.59 138.816L230.104 124.102L230.069 153.611L230.113 153.687L255.59 168.055Z" fill="#075985"/>
<path d="M255.59 168.276L229.972 153.829L204.688 168.427L230.043 183.065L255.59 168.316L255.59 168.276Z" fill="#075985"/>
<path d="M204.496 138.816L229.911 124.142L229.876 153.662L204.496 168.316L204.496 138.816Z" fill="#075985"/>
<path d="M320.097 136.791L320.097 170.436L290.959 187.258L261.822 170.436L261.822 136.791L290.959 119.969L320.097 136.791Z" fill="#1E1E1E"/>
<path d="M316.59 168.055L316.59 138.816L291.104 124.102L291.069 153.611L291.113 153.687L316.59 168.055Z" fill="#075985"/>
<path d="M316.59 168.276L290.972 153.829L265.689 168.427L291.043 183.065L316.59 168.316L316.59 168.276Z" fill="#075985"/>
<path d="M265.496 138.816L290.911 124.142L290.876 153.662L265.496 168.316L265.496 138.816Z" fill="#075985"/>
<path d="M382.097 136.791L382.097 170.436L352.959 187.258L323.822 170.436L323.822 136.791L352.959 119.969L382.097 136.791Z" fill="#1E1E1E"/>
<path d="M378.59 168.055L378.59 138.816L353.104 124.102L353.069 153.611L353.113 153.687L378.59 168.055Z" fill="#0EA5E9"/>
<path d="M378.59 168.276L352.973 153.829L327.689 168.427L353.043 183.065L378.59 168.316L378.59 168.276Z" fill="#0EA5E9"/>
<path d="M327.496 138.816L352.911 124.142L352.876 153.662L327.496 168.316L327.496 138.816Z" fill="#0EA5E9"/>
<path d="M198.097 136.791L198.097 170.435L168.96 187.258L139.822 170.435L139.822 136.791L168.96 119.968L198.097 136.791Z" fill="#1E1E1E"/>
<path d="M194.591 168.054L194.591 138.816L169.105 124.101L169.069 153.61L169.113 153.687L194.591 168.054Z" fill="#075985"/>
<path d="M194.591 168.276L168.973 153.829L143.689 168.426L169.043 183.065L194.591 168.315L194.591 168.276Z" fill="#075985"/>
<path d="M143.496 138.816L168.912 124.142L168.876 153.662L143.496 168.315L143.496 138.816Z" fill="#075985"/>
<path d="M167.096 190.79L167.096 224.435L137.959 241.257L108.822 224.435L108.822 190.79L137.959 173.968L167.096 190.79Z" fill="#1E1E1E"/>
<path d="M163.59 222.054L163.59 192.815L138.104 178.101L138.069 207.61L138.113 207.686L163.59 222.054Z" fill="#075985"/>
<path d="M163.59 222.275L137.972 207.828L112.688 222.426L138.043 237.064L163.59 222.315L163.59 222.275Z" fill="#075985"/>
<path d="M112.495 192.815L137.911 178.141L137.876 207.661L112.495 222.315L112.495 192.815Z" fill="#075985"/>
<path d="M228.096 190.79L228.096 224.435L198.959 241.257L169.822 224.435L169.822 190.79L198.959 173.968L228.096 190.79Z" fill="#1E1E1E"/>
<path d="M224.59 222.054L224.59 192.815L199.104 178.101L199.069 207.61L199.113 207.686L224.59 222.054Z" fill="#075985"/>
<path d="M224.59 222.275L198.972 207.828L173.688 222.426L199.043 237.064L224.59 222.315L224.59 222.275Z" fill="#075985"/>
<path d="M173.495 192.815L198.911 178.141L198.876 207.661L173.495 222.315L173.495 192.815Z" fill="#075985"/>
<path d="M290.096 190.79L290.096 224.435L260.959 241.257L231.821 224.435L231.821 190.79L260.959 173.968L290.096 190.79Z" fill="#1E1E1E"/>
<path d="M286.59 222.054L286.59 192.815L261.103 178.101L261.068 207.61L261.112 207.686L286.59 222.054Z" fill="#075985"/>
<path d="M286.59 222.275L260.972 207.828L235.688 222.426L261.042 237.064L286.59 222.315L286.59 222.275Z" fill="#075985"/>
<path d="M235.495 192.815L260.911 178.141L260.875 207.661L235.495 222.315L235.495 192.815Z" fill="#075985"/>
<path d="M136.097 136.791L136.097 170.435L106.96 187.258L77.8224 170.435L77.8224 136.791L106.96 119.968L136.097 136.791Z" fill="#1E1E1E"/>
<path d="M132.591 168.054L132.591 138.816L107.105 124.101L107.069 153.61L107.113 153.687L132.591 168.054Z" fill="#075985"/>
<path d="M132.591 168.276L106.973 153.829L81.6889 168.426L107.043 183.065L132.591 168.315L132.591 168.276Z" fill="#075985"/>
<path d="M81.4961 138.816L106.912 124.142L106.876 153.662L81.4961 168.315L81.4961 138.816Z" fill="#075985"/>
<path d="M106.096 82.7891L106.096 116.434L76.9587 133.256L47.8214 116.434L47.8214 82.7891L76.9587 65.9667L106.096 82.7891Z" fill="#1E1E1E"/>
<path d="M102.59 114.053L102.59 84.8141L77.1036 70.0997L77.0683 99.6087L77.1124 99.6851L102.59 114.053Z" fill="#0EA5E9"/>
<path d="M102.59 114.274L76.9718 99.8272L51.6879 114.425L77.0424 129.063L102.59 114.314L102.59 114.274Z" fill="#0EA5E9"/>
<path d="M51.4951 84.8141L76.9107 70.1403L76.8754 99.6602L51.4951 114.314L51.4951 84.8141Z" fill="#0EA5E9"/>
<path d="M75.097 136.791L75.097 170.435L45.9597 187.258L16.8224 170.435L16.8224 136.791L45.9597 119.968L75.097 136.791Z" fill="#1E1E1E"/>
<path d="M71.5907 168.054L71.5907 138.816L46.1046 124.101L46.0693 153.61L46.1134 153.687L71.5907 168.054Z" fill="#0EA5E9"/>
<path d="M71.5907 168.276L45.9728 153.829L20.6889 168.426L46.0434 183.065L71.5907 168.315L71.5907 168.276Z" fill="#0EA5E9"/>
<path d="M20.4961 138.816L45.9118 124.142L45.8764 153.662L20.4961 168.315L20.4961 138.816Z" fill="#0EA5E9"/>
<path d="M167.097 82.7906L167.097 116.435L137.959 133.258L108.822 116.435L108.822 82.7906L137.959 65.9682L167.097 82.7906Z" fill="#1E1E1E"/>
<path d="M163.59 114.054L163.59 84.8155L138.104 70.1011L138.069 99.6101L138.113 99.6866L163.59 114.054Z" fill="#0EA5E9"/>
<path d="M163.59 114.276L137.973 99.8287L112.689 114.426L138.043 129.065L163.59 114.315L163.59 114.276Z" fill="#0EA5E9"/>
<path d="M112.496 84.8155L137.912 70.1418L137.876 99.6617L112.496 114.315L112.496 84.8155Z" fill="#0EA5E9"/>
<path d="M198.096 29.7906L198.096 63.4354L168.959 80.2578L139.822 63.4354L139.822 29.7906L168.959 12.9682L198.096 29.7906Z" fill="#1E1E1E"/>
<path d="M194.59 61.0545L194.59 31.8155L169.104 17.1011L169.069 46.6101L169.113 46.6866L194.59 61.0545Z" fill="#075985"/>
<path d="M194.59 61.2758L168.972 46.8287L143.688 61.4263L169.043 76.0648L194.59 61.315L194.59 61.2758Z" fill="#075985"/>
<path d="M143.495 31.8155L168.911 17.1418L168.876 46.6617L143.495 61.315L143.495 31.8155Z" fill="#075985"/>
<path d="M228.096 82.7906L228.096 116.435L198.959 133.258L169.822 116.435L169.822 82.7906L198.959 65.9682L228.096 82.7906Z" fill="#1E1E1E"/>
<path d="M224.59 114.054L224.59 84.8155L199.104 70.1011L199.069 99.6101L199.113 99.6866L224.59 114.054Z" fill="#075985"/>
<path d="M224.59 114.276L198.972 99.8287L173.688 114.426L199.043 129.065L224.59 114.315L224.59 114.276Z" fill="#075985"/>
<path d="M173.495 84.8155L198.911 70.1418L198.876 99.6617L173.495 114.315L173.495 84.8155Z" fill="#075985"/>
<path d="M259.096 29.7906L259.096 63.4354L229.959 80.2578L200.822 63.4354L200.822 29.7906L229.959 12.9682L259.096 29.7906Z" fill="#1E1E1E"/>
<path d="M255.59 61.0545L255.59 31.8155L230.104 17.1011L230.069 46.6101L230.113 46.6866L255.59 61.0545Z" fill="#0EA5E9"/>
<path d="M255.59 61.2758L229.972 46.8287L204.688 61.4263L230.043 76.0648L255.59 61.315L255.59 61.2758Z" fill="#0EA5E9"/>
<path d="M204.496 31.8155L229.911 17.1418L229.876 46.6617L204.496 61.315L204.496 31.8155Z" fill="#0EA5E9"/>
<path d="M290.096 82.7906L290.096 116.435L260.959 133.258L231.822 116.435L231.822 82.7906L260.959 65.9682L290.096 82.7906Z" fill="#1E1E1E"/>
<path d="M286.59 114.054L286.59 84.8155L261.104 70.1011L261.069 99.6101L261.113 99.6866L286.59 114.054Z" fill="#0EA5E9"/>
<path d="M286.59 114.276L260.972 99.8287L235.688 114.426L261.043 129.065L286.59 114.315L286.59 114.276Z" fill="#0EA5E9"/>
<path d="M235.495 84.8155L260.911 70.1418L260.876 99.6617L235.495 114.315L235.495 84.8155Z" fill="#0EA5E9"/>
<path d="M320.097 29.7906L320.097 63.4354L290.959 80.2578L261.822 63.4354L261.822 29.7906L290.959 12.9682L320.097 29.7906Z" fill="#1E1E1E"/>
<path d="M316.59 61.0545L316.59 31.8155L291.104 17.1011L291.069 46.6101L291.113 46.6866L316.59 61.0545Z" fill="#075985"/>
<path d="M316.59 61.2758L290.972 46.8287L265.689 61.4263L291.043 76.0648L316.59 61.315L316.59 61.2758Z" fill="#075985"/>
<path d="M265.496 31.8155L290.911 17.1418L290.876 46.6617L265.496 61.315L265.496 31.8155Z" fill="#075985"/>
<path d="M169.54 350.942L170.442 346.96L166.46 346.058L165.558 350.04L169.54 350.942ZM44.4604 152.559L43.5581 156.54L47.5396 157.442L48.4419 153.461L44.4604 152.559ZM231.098 316.859L234.359 314.402L231.902 311.141L228.641 313.598L231.098 316.859ZM261.904 97.6436L258.644 100.101L261.101 103.361L264.361 100.904L261.904 97.6436ZM229.96 350.942L233.942 350.04L233.04 346.058L229.058 346.96L229.96 350.942ZM355.04 152.559L351.058 153.461L351.96 157.442L355.942 156.54L355.04 152.559ZM195.823 298.267L197.767 294.677L194.177 292.733L192.233 296.323L195.823 298.267ZM136.178 97.7353L134.234 101.325L137.824 103.269L139.768 99.6793L136.178 97.7353ZM204.211 298.372L207.372 295.789L204.789 292.628L201.628 295.211L204.211 298.372ZM229.792 44.1277L226.63 46.711L229.214 49.8722L232.375 47.289L229.792 44.1277ZM169.144 316.65L170.65 312.856L166.856 311.35L165.35 315.144L169.144 316.65ZM74.7194 97.8518L73.2128 101.646L77.0071 103.153L78.5137 99.3584L74.7194 97.8518ZM45.577 155.267L46.1121 156.116L46.958 155.582L46.423 154.734L45.577 155.267ZM47.1823 157.813L48.2525 159.511L49.0984 158.977L48.0282 157.28L47.1823 157.813ZM49.3227 161.208L50.3928 162.905L51.2387 162.372L50.1686 160.675L49.3227 161.208ZM51.463 164.603L52.5332 166.3L53.3791 165.767L52.3089 164.069L51.463 164.603ZM53.6034 167.997L54.6735 169.695L55.5194 169.161L54.4493 167.464L53.6034 167.997ZM55.7437 171.392L56.8139 173.089L57.6598 172.556L56.5896 170.859L55.7437 171.392ZM57.8841 174.787L58.9542 176.484L59.8001 175.951L58.73 174.253L57.8841 174.787ZM60.0244 178.182L61.0946 179.879L61.9405 179.346L60.8703 177.648L60.0244 178.182ZM62.1648 181.576L63.2349 183.274L64.0808 182.74L63.0107 181.043L62.1648 181.576ZM64.3051 184.971L65.3753 186.668L66.2212 186.135L65.151 184.438L64.3051 184.971ZM66.4455 188.366L67.5156 190.063L68.3615 189.53L67.2914 187.832L66.4455 188.366ZM68.5858 191.76L69.656 193.458L70.5019 192.925L69.4317 191.227L68.5858 191.76ZM70.7262 195.155L71.7963 196.853L72.6422 196.319L71.5721 194.622L70.7262 195.155ZM72.8665 198.55L73.9367 200.247L74.7826 199.714L73.7124 198.017L72.8665 198.55ZM75.0069 201.945L76.077 203.642L76.9229 203.109L75.8528 201.411L75.0069 201.945ZM77.1472 205.339L78.2174 207.037L79.0633 206.503L77.9931 204.806L77.1472 205.339ZM79.2876 208.734L80.3577 210.431L81.2036 209.898L80.1335 208.201L79.2876 208.734ZM81.4279 212.129L82.4981 213.826L83.344 213.293L82.2738 211.596L81.4279 212.129ZM83.5683 215.524L84.6384 217.221L85.4843 216.688L84.4142 214.99L83.5683 215.524ZM85.7086 218.918L86.7788 220.616L87.6247 220.082L86.5545 218.385L85.7086 218.918ZM87.849 222.313L88.9191 224.01L89.7651 223.477L88.6949 221.78L87.849 222.313ZM89.9893 225.708L91.0595 227.405L91.9054 226.872L90.8352 225.174L89.9893 225.708ZM92.1297 229.102L93.1998 230.8L94.0458 230.267L92.9756 228.569L92.1297 229.102ZM94.27 232.497L95.3402 234.195L96.1861 233.661L95.1159 231.964L94.27 232.497ZM96.4104 235.892L97.4805 237.589L98.3265 237.056L97.2563 235.359L96.4104 235.892ZM98.5507 239.287L99.6209 240.984L100.467 240.451L99.3966 238.753L98.5507 239.287ZM100.691 242.681L101.761 244.379L102.607 243.845L101.537 242.148L100.691 242.681ZM102.831 246.076L103.902 247.773L104.748 247.24L103.677 245.543L102.831 246.076ZM104.972 249.471L106.042 251.168L106.888 250.635L105.818 248.938L104.972 249.471ZM107.112 252.866L108.182 254.563L109.028 254.03L107.958 252.332L107.112 252.866ZM109.252 256.26L110.323 257.958L111.169 257.424L110.098 255.727L109.252 256.26ZM111.393 259.655L112.463 261.352L113.309 260.819L112.239 259.122L111.393 259.655ZM113.533 263.05L114.603 264.747L115.449 264.214L114.379 262.516L113.533 263.05ZM115.674 266.444L116.744 268.142L117.59 267.609L116.519 265.911L115.674 266.444ZM117.814 269.839L118.884 271.537L119.73 271.003L118.66 269.306L117.814 269.839ZM119.954 273.234L121.024 274.931L121.87 274.398L120.8 272.701L119.954 273.234ZM122.095 276.629L123.165 278.326L124.011 277.793L122.941 276.095L122.095 276.629ZM124.235 280.023L125.305 281.721L126.151 281.187L125.081 279.49L124.235 280.023ZM126.375 283.418L127.446 285.116L128.291 284.582L127.221 282.885L126.375 283.418ZM128.516 286.813L129.586 288.51L130.432 287.977L129.362 286.28L128.516 286.813ZM130.656 290.208L131.726 291.905L132.572 291.372L131.502 289.674L130.656 290.208ZM132.796 293.602L133.867 295.3L134.712 294.766L133.642 293.069L132.796 293.602ZM134.937 296.997L136.007 298.695L136.853 298.161L135.783 296.464L134.937 296.997ZM137.077 300.392L138.147 302.089L138.993 301.556L137.923 299.859L137.077 300.392ZM139.217 303.787L140.288 305.484L141.134 304.951L140.063 303.253L139.217 303.787ZM141.358 307.181L142.428 308.879L143.274 308.345L142.204 306.648L141.358 307.181ZM143.498 310.576L144.568 312.273L145.414 311.74L144.344 310.043L143.498 310.576ZM145.639 313.971L146.709 315.668L147.555 315.135L146.484 313.438L145.639 313.971ZM147.779 317.366L148.849 319.063L149.695 318.53L148.625 316.832L147.779 317.366ZM149.919 320.76L150.989 322.458L151.835 321.924L150.765 320.227L149.919 320.76ZM152.06 324.155L153.13 325.852L153.976 325.319L152.906 323.622L152.06 324.155ZM154.2 327.55L155.27 329.247L156.116 328.714L155.046 327.016L154.2 327.55ZM156.34 330.945L157.411 332.642L158.256 332.109L157.186 330.411L156.34 330.945ZM158.481 334.339L159.551 336.037L160.397 335.503L159.327 333.806L158.481 334.339ZM160.621 337.734L161.691 339.431L162.537 338.898L161.467 337.201L160.621 337.734ZM162.761 341.129L163.832 342.826L164.678 342.293L163.607 340.595L162.761 341.129ZM164.902 344.524L165.972 346.221L166.818 345.688L165.748 343.99L164.902 344.524ZM167.042 347.918L167.577 348.767L168.423 348.233L167.888 347.385L167.042 347.918ZM231.995 314.07L232.134 313.081L231.144 312.942L231.005 313.93L231.995 314.07ZM232.412 311.104L232.69 309.128L231.699 308.988L231.422 310.965L232.412 311.104ZM232.967 307.151L233.245 305.174L232.255 305.035L231.977 307.012L232.967 307.151ZM233.523 303.197L233.801 301.22L232.811 301.081L232.533 303.058L233.523 303.197ZM234.079 299.243L234.356 297.267L233.366 297.127L233.088 299.104L234.079 299.243ZM234.634 295.29L234.912 293.313L233.922 293.174L233.644 295.151L234.634 295.29ZM235.19 291.336L235.468 289.359L234.477 289.22L234.2 291.197L235.19 291.336ZM235.745 287.382L236.023 285.406L235.033 285.266L234.755 287.243L235.745 287.382ZM236.301 283.429L236.579 281.452L235.589 281.313L235.311 283.29L236.301 283.429ZM236.857 279.475L237.134 277.498L236.144 277.359L235.866 279.336L236.857 279.475ZM237.412 275.521L237.69 273.545L236.7 273.405L236.422 275.382L237.412 275.521ZM237.968 271.568L238.246 269.591L237.255 269.452L236.978 271.429L237.968 271.568ZM238.523 267.614L238.801 265.637L237.811 265.498L237.533 267.475L238.523 267.614ZM239.079 263.66L239.357 261.684L238.367 261.544L238.089 263.521L239.079 263.66ZM239.635 259.707L239.913 257.73L238.922 257.591L238.644 259.568L239.635 259.707ZM240.19 255.753L240.468 253.776L239.478 253.637L239.2 255.614L240.19 255.753ZM240.746 251.799L241.024 249.823L240.033 249.683L239.756 251.66L240.746 251.799ZM241.302 247.846L241.579 245.869L240.589 245.73L240.311 247.707L241.302 247.846ZM241.857 243.892L242.135 241.915L241.145 241.776L240.867 243.753L241.857 243.892ZM242.413 239.938L242.691 237.962L241.7 237.822L241.422 239.799L242.413 239.938ZM242.968 235.985L243.246 234.008L242.256 233.869L241.978 235.846L242.968 235.985ZM243.524 232.031L243.802 230.054L242.811 229.915L242.534 231.892L243.524 232.031ZM244.08 228.077L244.357 226.101L243.367 225.961L243.089 227.938L244.08 228.077ZM244.635 224.124L244.913 222.147L243.923 222.008L243.645 223.985L244.635 224.124ZM245.191 220.17L245.469 218.193L244.478 218.054L244.2 220.031L245.191 220.17ZM245.746 216.216L246.024 214.24L245.034 214.1L244.756 216.077L245.746 216.216ZM246.302 212.263L246.58 210.286L245.59 210.147L245.312 212.124L246.302 212.263ZM246.858 208.309L247.135 206.332L246.145 206.193L245.867 208.17L246.858 208.309ZM247.413 204.356L247.691 202.379L246.701 202.24L246.423 204.216L247.413 204.356ZM247.969 200.402L248.247 198.425L247.256 198.286L246.979 200.263L247.969 200.402ZM248.524 196.448L248.802 194.471L247.812 194.332L247.534 196.309L248.524 196.448ZM249.08 192.495L249.358 190.518L248.368 190.379L248.09 192.355L249.08 192.495ZM249.636 188.541L249.913 186.564L248.923 186.425L248.645 188.402L249.636 188.541ZM250.191 184.587L250.469 182.61L249.479 182.471L249.201 184.448L250.191 184.587ZM250.747 180.634L251.025 178.657L250.034 178.518L249.757 180.494L250.747 180.634ZM251.302 176.68L251.58 174.703L250.59 174.564L250.312 176.541L251.302 176.68ZM251.858 172.726L252.136 170.749L251.146 170.61L250.868 172.587L251.858 172.726ZM252.414 168.773L252.691 166.796L251.701 166.657L251.423 168.633L252.414 168.773ZM252.969 164.819L253.247 162.842L252.257 162.703L251.979 164.68L252.969 164.819ZM253.525 160.865L253.803 158.888L252.812 158.749L252.535 160.726L253.525 160.865ZM254.08 156.911L254.358 154.935L253.368 154.795L253.09 156.772L254.08 156.911ZM254.636 152.958L254.914 150.981L253.924 150.842L253.646 152.819L254.636 152.958ZM255.192 149.004L255.469 147.027L254.479 146.888L254.201 148.865L255.192 149.004ZM255.747 145.05L256.025 143.074L255.035 142.934L254.757 144.911L255.747 145.05ZM256.303 141.097L256.581 139.12L255.59 138.981L255.313 140.958L256.303 141.097ZM256.858 137.143L257.136 135.166L256.146 135.027L255.868 137.004L256.858 137.143ZM257.414 133.189L257.692 131.213L256.702 131.073L256.424 133.05L257.414 133.189ZM257.97 129.236L258.248 127.259L257.257 127.12L256.979 129.097L257.97 129.236ZM258.525 125.282L258.803 123.305L257.813 123.166L257.535 125.143L258.525 125.282ZM259.081 121.328L259.359 119.352L258.368 119.212L258.091 121.189L259.081 121.328ZM259.637 117.375L259.914 115.398L258.924 115.259L258.646 117.236L259.637 117.375ZM260.192 113.421L260.47 111.444L259.48 111.305L259.202 113.282L260.192 113.421ZM260.748 109.467L261.026 107.491L260.035 107.351L259.757 109.328L260.748 109.467ZM261.303 105.514L261.581 103.537L260.591 103.398L260.313 105.375L261.303 105.514ZM261.859 101.56L261.998 100.572L261.008 100.433L260.869 101.421L261.859 101.56ZM231.923 348.767L232.458 347.918L231.612 347.385L231.077 348.233L231.923 348.767ZM233.528 346.221L234.598 344.523L233.752 343.99L232.682 345.687L233.528 346.221ZM235.669 342.826L236.739 341.129L235.893 340.595L234.823 342.293L235.669 342.826ZM237.809 339.431L238.879 337.734L238.033 337.2L236.963 338.898L237.809 339.431ZM239.949 336.036L241.019 334.339L240.174 333.806L239.103 335.503L239.949 336.036ZM242.09 332.642L243.16 330.944L242.314 330.411L241.244 332.108L242.09 332.642ZM244.23 329.247L245.3 327.55L244.454 327.016L243.384 328.714L244.23 329.247ZM246.37 325.852L247.44 324.155L246.595 323.622L245.524 325.319L246.37 325.852ZM248.511 322.458L249.581 320.76L248.735 320.227L247.665 321.924L248.511 322.458ZM250.651 319.063L251.721 317.365L250.875 316.832L249.805 318.529L250.651 319.063ZM252.791 315.668L253.862 313.971L253.016 313.437L251.945 315.135L252.791 315.668ZM254.932 312.273L256.002 310.576L255.156 310.043L254.086 311.74L254.932 312.273ZM257.072 308.879L258.142 307.181L257.296 306.648L256.226 308.345L257.072 308.879ZM259.212 305.484L260.283 303.787L259.437 303.253L258.367 304.951L259.212 305.484ZM261.353 302.089L262.423 300.392L261.577 299.858L260.507 301.556L261.353 302.089ZM263.493 298.694L264.563 296.997L263.717 296.464L262.647 298.161L263.493 298.694ZM265.633 295.3L266.704 293.602L265.858 293.069L264.788 294.766L265.633 295.3ZM267.774 291.905L268.844 290.208L267.998 289.674L266.928 291.372L267.774 291.905ZM269.914 288.51L270.984 286.813L270.138 286.28L269.068 287.977L269.914 288.51ZM272.055 285.116L273.125 283.418L272.279 282.885L271.209 284.582L272.055 285.116ZM274.195 281.721L275.265 280.023L274.419 279.49L273.349 281.187L274.195 281.721ZM276.335 278.326L277.405 276.629L276.56 276.095L275.489 277.793L276.335 278.326ZM278.476 274.931L279.546 273.234L278.7 272.701L277.63 274.398L278.476 274.931ZM280.616 271.537L281.686 269.839L280.84 269.306L279.77 271.003L280.616 271.537ZM282.756 268.142L283.826 266.445L282.981 265.911L281.91 267.609L282.756 268.142ZM284.897 264.747L285.967 263.05L285.121 262.516L284.051 264.214L284.897 264.747ZM287.037 261.352L288.107 259.655L287.261 259.122L286.191 260.819L287.037 261.352ZM289.177 257.958L290.248 256.26L289.402 255.727L288.331 257.424L289.177 257.958ZM291.318 254.563L292.388 252.866L291.542 252.332L290.472 254.03L291.318 254.563ZM293.458 251.168L294.528 249.471L293.682 248.938L292.612 250.635L293.458 251.168ZM295.598 247.774L296.669 246.076L295.823 245.543L294.752 247.24L295.598 247.774ZM297.739 244.379L298.809 242.681L297.963 242.148L296.893 243.845L297.739 244.379ZM299.879 240.984L300.949 239.287L300.103 238.753L299.033 240.451L299.879 240.984ZM302.019 237.589L303.09 235.892L302.244 235.359L301.174 237.056L302.019 237.589ZM304.16 234.195L305.23 232.497L304.384 231.964L303.314 233.661L304.16 234.195ZM306.3 230.8L307.37 229.102L306.524 228.569L305.454 230.266L306.3 230.8ZM308.441 227.405L309.511 225.708L308.665 225.174L307.595 226.872L308.441 227.405ZM310.581 224.01L311.651 222.313L310.805 221.78L309.735 223.477L310.581 224.01ZM312.721 220.616L313.791 218.918L312.946 218.385L311.875 220.082L312.721 220.616ZM314.862 217.221L315.932 215.524L315.086 214.99L314.016 216.688L314.862 217.221ZM317.002 213.826L318.072 212.129L317.226 211.595L316.156 213.293L317.002 213.826ZM319.142 210.431L320.212 208.734L319.367 208.201L318.296 209.898L319.142 210.431ZM321.283 207.037L322.353 205.339L321.507 204.806L320.437 206.503L321.283 207.037ZM323.423 203.642L324.493 201.945L323.647 201.411L322.577 203.109L323.423 203.642ZM325.563 200.247L326.634 198.55L325.788 198.016L324.717 199.714L325.563 200.247ZM327.704 196.852L328.774 195.155L327.928 194.622L326.858 196.319L327.704 196.852ZM329.844 193.458L330.914 191.76L330.068 191.227L328.998 192.924L329.844 193.458ZM331.984 190.063L333.055 188.366L332.209 187.832L331.139 189.53L331.984 190.063ZM334.125 186.668L335.195 184.971L334.349 184.438L333.279 186.135L334.125 186.668ZM336.265 183.273L337.335 181.576L336.489 181.043L335.419 182.74L336.265 183.273ZM338.406 179.879L339.476 178.181L338.63 177.648L337.56 179.345L338.406 179.879ZM340.546 176.484L341.616 174.787L340.77 174.253L339.7 175.951L340.546 176.484ZM342.686 173.089L343.756 171.392L342.911 170.859L341.84 172.556L342.686 173.089ZM344.827 169.695L345.897 167.997L345.051 167.464L343.981 169.161L344.827 169.695ZM346.967 166.3L348.037 164.602L347.191 164.069L346.121 165.766L346.967 166.3ZM349.107 162.905L350.178 161.208L349.332 160.674L348.261 162.372L349.107 162.905ZM351.248 159.51L352.318 157.813L351.472 157.28L350.402 158.977L351.248 159.51ZM353.388 156.116L353.923 155.267L353.077 154.734L352.542 155.582L353.388 156.116ZM136.522 100.645L136.806 101.601L137.765 101.316L137.48 100.36L136.522 100.645ZM137.375 103.512L137.944 105.424L138.902 105.139L138.333 103.227L137.375 103.512ZM138.512 107.336L139.081 109.248L140.039 108.963L139.471 107.051L138.512 107.336ZM139.649 111.159L140.218 113.071L141.176 112.786L140.608 110.874L139.649 111.159ZM140.787 114.983L141.355 116.895L142.314 116.61L141.745 114.698L140.787 114.983ZM141.924 118.806L142.492 120.718L143.451 120.433L142.882 118.521L141.924 118.806ZM143.061 122.63L143.63 124.542L144.588 124.256L144.02 122.345L143.061 122.63ZM144.198 126.453L144.767 128.365L145.725 128.08L145.157 126.168L144.198 126.453ZM145.336 130.277L145.904 132.189L146.863 131.903L146.294 129.992L145.336 130.277ZM146.473 134.1L147.041 136.012L148 135.727L147.431 133.815L146.473 134.1ZM147.61 137.924L148.179 139.836L149.137 139.55L148.568 137.639L147.61 137.924ZM148.747 141.747L149.316 143.659L150.274 143.374L149.706 141.462L148.747 141.747ZM149.884 145.571L150.453 147.483L151.412 147.197L150.843 145.286L149.884 145.571ZM151.022 149.394L151.59 151.306L152.549 151.021L151.98 149.109L151.022 149.394ZM152.159 153.218L152.728 155.129L153.686 154.844L153.117 152.933L152.159 153.218ZM153.296 157.041L153.865 158.953L154.823 158.668L154.255 156.756L153.296 157.041ZM154.433 160.865L155.002 162.776L155.96 162.491L155.392 160.58L154.433 160.865ZM155.571 164.688L156.139 166.6L157.098 166.315L156.529 164.403L155.571 164.688ZM156.708 168.512L157.276 170.423L158.235 170.138L157.666 168.227L156.708 168.512ZM157.845 172.335L158.414 174.247L159.372 173.962L158.804 172.05L157.845 172.335ZM158.982 176.159L159.551 178.07L160.509 177.785L159.941 175.874L158.982 176.159ZM160.12 179.982L160.688 181.894L161.647 181.609L161.078 179.697L160.12 179.982ZM161.257 183.806L161.825 185.717L162.784 185.432L162.215 183.521L161.257 183.806ZM162.394 187.629L162.963 189.541L163.921 189.256L163.352 187.344L162.394 187.629ZM163.531 191.453L164.1 193.364L165.058 193.079L164.49 191.168L163.531 191.453ZM164.668 195.276L165.237 197.188L166.196 196.903L165.627 194.991L164.668 195.276ZM165.806 199.1L166.374 201.011L167.333 200.726L166.764 198.814L165.806 199.1ZM166.943 202.923L167.512 204.835L168.47 204.55L167.901 202.638L166.943 202.923ZM168.08 206.747L168.649 208.658L169.607 208.373L169.039 206.461L168.08 206.747ZM169.217 210.57L169.786 212.482L170.744 212.197L170.176 210.285L169.217 210.57ZM170.355 214.394L170.923 216.305L171.882 216.02L171.313 214.108L170.355 214.394ZM171.492 218.217L172.06 220.129L173.019 219.844L172.45 217.932L171.492 218.217ZM172.629 222.04L173.198 223.952L174.156 223.667L173.588 221.755L172.629 222.04ZM173.766 225.864L174.335 227.776L175.293 227.491L174.725 225.579L173.766 225.864ZM174.904 229.687L175.472 231.599L176.431 231.314L175.862 229.402L174.904 229.687ZM176.041 233.511L176.609 235.423L177.568 235.138L176.999 233.226L176.041 233.511ZM177.178 237.334L177.747 239.246L178.705 238.961L178.136 237.049L177.178 237.334ZM178.315 241.158L178.884 243.07L179.842 242.785L179.274 240.873L178.315 241.158ZM179.452 244.981L180.021 246.893L180.98 246.608L180.411 244.696L179.452 244.981ZM180.59 248.805L181.158 250.717L182.117 250.431L181.548 248.52L180.59 248.805ZM181.727 252.628L182.296 254.54L183.254 254.255L182.685 252.343L181.727 252.628ZM182.864 256.452L183.433 258.363L184.391 258.078L183.823 256.167L182.864 256.452ZM184.001 260.275L184.57 262.187L185.528 261.902L184.96 259.99L184.001 260.275ZM185.139 264.099L185.707 266.01L186.666 265.725L186.097 263.814L185.139 264.099ZM186.276 267.922L186.844 269.834L187.803 269.549L187.234 267.637L186.276 267.922ZM187.413 271.746L187.982 273.657L188.94 273.372L188.372 271.461L187.413 271.746ZM188.55 275.569L189.119 277.481L190.077 277.196L189.509 275.284L188.55 275.569ZM189.687 279.393L190.256 281.304L191.215 281.019L190.646 279.108L189.687 279.393ZM190.825 283.216L191.393 285.128L192.352 284.843L191.783 282.931L190.825 283.216ZM191.962 287.04L192.531 288.951L193.489 288.666L192.92 286.754L191.962 287.04ZM193.099 290.863L193.668 292.775L194.626 292.49L194.058 290.578L193.099 290.863ZM194.236 294.686L194.521 295.643L195.479 295.357L195.195 294.401L194.236 294.686ZM204.997 295.55L205.098 294.548L204.103 294.448L204.003 295.45L204.997 295.55ZM205.3 292.544L205.502 290.54L204.507 290.44L204.305 292.444L205.3 292.544ZM205.703 288.536L205.905 286.532L204.91 286.432L204.708 288.436L205.703 288.536ZM206.106 284.528L206.308 282.524L205.313 282.424L205.112 284.428L206.106 284.528ZM206.51 280.52L206.711 278.516L205.716 278.416L205.515 280.42L206.51 280.52ZM206.913 276.512L207.115 274.508L206.12 274.408L205.918 276.412L206.913 276.512ZM207.316 272.504L207.518 270.5L206.523 270.4L206.321 272.404L207.316 272.504ZM207.72 268.496L207.921 266.492L206.926 266.391L206.725 268.396L207.72 268.496ZM208.123 264.488L208.324 262.484L207.329 262.383L207.128 264.387L208.123 264.488ZM208.526 260.479L208.728 258.475L207.733 258.375L207.531 260.379L208.526 260.479ZM208.929 256.471L209.131 254.467L208.136 254.367L207.934 256.371L208.929 256.471ZM209.333 252.463L209.534 250.459L208.539 250.359L208.338 252.363L209.333 252.463ZM209.736 248.455L209.938 246.451L208.943 246.351L208.741 248.355L209.736 248.455ZM210.139 244.447L210.341 242.443L209.346 242.343L209.144 244.347L210.139 244.447ZM210.542 240.439L210.744 238.435L209.749 238.335L209.547 240.339L210.542 240.439ZM210.946 236.431L211.147 234.427L210.152 234.327L209.951 236.331L210.946 236.431ZM211.349 232.423L211.551 230.419L210.556 230.319L210.354 232.323L211.349 232.423ZM211.752 228.415L211.954 226.411L210.959 226.311L210.757 228.315L211.752 228.415ZM212.156 224.407L212.357 222.403L211.362 222.303L211.161 224.307L212.156 224.407ZM212.559 220.399L212.76 218.395L211.765 218.295L211.564 220.299L212.559 220.399ZM212.962 216.391L213.164 214.387L212.169 214.287L211.967 216.291L212.962 216.391ZM213.365 212.383L213.567 210.379L212.572 210.279L212.37 212.283L213.365 212.383ZM213.769 208.375L213.97 206.371L212.975 206.271L212.774 208.275L213.769 208.375ZM214.172 204.367L214.373 202.363L213.379 202.262L213.177 204.266L214.172 204.367ZM214.575 200.359L214.777 198.354L213.782 198.254L213.58 200.258L214.575 200.359ZM214.978 196.35L215.18 194.346L214.185 194.246L213.983 196.25L214.978 196.35ZM215.382 192.342L215.583 190.338L214.588 190.238L214.387 192.242L215.382 192.342ZM215.785 188.334L215.987 186.33L214.992 186.23L214.79 188.234L215.785 188.334ZM216.188 184.326L216.39 182.322L215.395 182.222L215.193 184.226L216.188 184.326ZM216.591 180.318L216.793 178.314L215.798 178.214L215.597 180.218L216.591 180.318ZM216.995 176.31L217.196 174.306L216.201 174.206L216 176.21L216.995 176.31ZM217.398 172.302L217.6 170.298L216.605 170.198L216.403 172.202L217.398 172.302ZM217.801 168.294L218.003 166.29L217.008 166.19L216.806 168.194L217.801 168.294ZM218.205 164.286L218.406 162.282L217.411 162.182L217.21 164.186L218.205 164.286ZM218.608 160.278L218.809 158.274L217.814 158.174L217.613 160.178L218.608 160.278ZM219.011 156.27L219.213 154.266L218.218 154.166L218.016 156.17L219.011 156.27ZM219.414 152.262L219.616 150.258L218.621 150.158L218.419 152.162L219.414 152.262ZM219.818 148.254L220.019 146.25L219.024 146.15L218.823 148.154L219.818 148.254ZM220.221 144.246L220.423 142.242L219.428 142.142L219.226 144.146L220.221 144.246ZM220.624 140.238L220.826 138.234L219.831 138.133L219.629 140.137L220.624 140.238ZM221.027 136.23L221.229 134.226L220.234 134.125L220.032 136.129L221.027 136.23ZM221.431 132.221L221.632 130.217L220.637 130.117L220.436 132.121L221.431 132.221ZM221.834 128.213L222.036 126.209L221.041 126.109L220.839 128.113L221.834 128.213ZM222.237 124.205L222.439 122.201L221.444 122.101L221.242 124.105L222.237 124.205ZM222.641 120.197L222.842 118.193L221.847 118.093L221.646 120.097L222.641 120.197ZM223.044 116.189L223.245 114.185L222.25 114.085L222.049 116.089L223.044 116.189ZM223.447 112.181L223.649 110.177L222.654 110.077L222.452 112.081L223.447 112.181ZM223.85 108.173L224.052 106.169L223.057 106.069L222.855 108.073L223.85 108.173ZM224.254 104.165L224.455 102.161L223.46 102.061L223.259 104.065L224.254 104.165ZM224.657 100.157L224.858 98.153L223.864 98.0529L223.662 100.057L224.657 100.157ZM225.06 96.149L225.262 94.145L224.267 94.0449L224.065 96.0489L225.06 96.149ZM225.463 92.141L225.665 90.1369L224.67 90.0368L224.468 92.0408L225.463 92.141ZM225.867 88.1329L226.068 86.1289L225.073 86.0288L224.872 88.0328L225.867 88.1329ZM226.27 84.1248L226.472 82.1208L225.477 82.0207L225.275 84.0247L226.27 84.1248ZM226.673 80.1168L226.875 78.1128L225.88 78.0127L225.678 80.0167L226.673 80.1168ZM227.076 76.1087L227.278 74.1047L226.283 74.0046L226.081 76.0086L227.076 76.1087ZM227.48 72.1007L227.681 70.0967L226.686 69.9965L226.485 72.0006L227.48 72.1007ZM227.883 68.0926L228.085 66.0886L227.09 65.9885L226.888 67.9925L227.883 68.0926ZM228.286 64.0846L228.488 62.0805L227.493 61.9804L227.291 63.9845L228.286 64.0846ZM228.69 60.0765L228.891 58.0725L227.896 57.9724L227.695 59.9764L228.69 60.0765ZM229.093 56.0685L229.294 54.0644L228.299 53.9643L228.098 55.9684L229.093 56.0685ZM229.496 52.0604L229.698 50.0564L228.703 49.9563L228.501 51.9603L229.496 52.0604ZM229.899 48.0524L230 47.0501L229.005 46.9499L228.904 47.9523L229.899 48.0524ZM75.4042 100.7L75.8013 101.621L76.7194 101.224L76.3223 100.304L75.4042 100.7ZM76.5956 103.461L77.3899 105.302L78.308 104.905L77.5137 103.065L76.5956 103.461ZM78.1841 107.142L78.9784 108.983L79.8966 108.586L79.1023 106.746L78.1841 107.142ZM79.7727 110.823L80.567 112.664L81.4851 112.267L80.6909 110.427L79.7727 110.823ZM81.3613 114.504L82.1556 116.345L83.0737 115.948L82.2794 114.108L81.3613 114.504ZM82.9498 118.185L83.7441 120.026L84.6623 119.629L83.868 117.789L82.9498 118.185ZM84.5384 121.866L85.3327 123.707L86.2508 123.31L85.4566 121.47L84.5384 121.866ZM86.127 125.547L86.9213 127.388L87.8394 126.991L87.0451 125.151L86.127 125.547ZM87.7155 129.228L88.5098 131.069L89.428 130.672L88.6337 128.832L87.7155 129.228ZM89.3041 132.909L90.0984 134.75L91.0165 134.353L90.2222 132.513L89.3041 132.909ZM90.8927 136.59L91.6869 138.431L92.6051 138.034L91.8108 136.194L90.8927 136.59ZM92.4812 140.271L93.2755 142.112L94.1937 141.715L93.3994 139.875L92.4812 140.271ZM94.0698 143.952L94.8641 145.793L95.7822 145.396L94.9879 143.556L94.0698 143.952ZM95.6584 147.633L96.4526 149.474L97.3708 149.077L96.5765 147.237L95.6584 147.633ZM97.2469 151.314L98.0412 153.155L98.9594 152.758L98.1651 150.918L97.2469 151.314ZM98.8355 154.995L99.6298 156.836L100.548 156.439L99.7536 154.599L98.8355 154.995ZM100.424 158.676L101.218 160.517L102.136 160.12L101.342 158.28L100.424 158.676ZM102.013 162.357L102.807 164.198L103.725 163.801L102.931 161.961L102.013 162.357ZM103.601 166.038L104.395 167.879L105.314 167.482L104.519 165.642L103.601 166.038ZM105.19 169.719L105.984 171.56L106.902 171.163L106.108 169.323L105.19 169.719ZM106.778 173.4L107.573 175.241L108.491 174.844L107.696 173.004L106.778 173.4ZM108.367 177.081L109.161 178.922L110.079 178.525L109.285 176.685L108.367 177.081ZM109.955 180.762L110.75 182.603L111.668 182.206L110.874 180.366L109.955 180.762ZM111.544 184.443L112.338 186.284L113.256 185.887L112.462 184.047L111.544 184.443ZM113.133 188.124L113.927 189.965L114.845 189.568L114.051 187.728L113.133 188.124ZM114.721 191.805L115.515 193.646L116.434 193.249L115.639 191.409L114.721 191.805ZM116.31 195.486L117.104 197.327L118.022 196.93L117.228 195.09L116.31 195.486ZM117.898 199.167L118.693 201.008L119.611 200.611L118.816 198.771L117.898 199.167ZM119.487 202.848L120.281 204.689L121.199 204.292L120.405 202.452L119.487 202.848ZM121.075 206.529L121.87 208.37L122.788 207.973L121.994 206.133L121.075 206.529ZM122.664 210.21L123.458 212.051L124.376 211.654L123.582 209.814L122.664 210.21ZM124.253 213.891L125.047 215.732L125.965 215.335L125.171 213.495L124.253 213.891ZM125.841 217.572L126.635 219.413L127.554 219.016L126.759 217.176L125.841 217.572ZM127.43 221.253L128.224 223.094L129.142 222.697L128.348 220.857L127.43 221.253ZM129.018 224.934L129.813 226.775L130.731 226.378L129.936 224.538L129.018 224.934ZM130.607 228.615L131.401 230.456L132.319 230.059L131.525 228.219L130.607 228.615ZM132.195 232.296L132.99 234.137L133.908 233.74L133.114 231.9L132.195 232.296ZM133.784 235.977L134.578 237.818L135.496 237.421L134.702 235.581L133.784 235.977ZM135.373 239.658L136.167 241.499L137.085 241.102L136.291 239.262L135.373 239.658ZM136.961 243.339L137.755 245.18L138.674 244.783L137.879 242.943L136.961 243.339ZM138.55 247.02L139.344 248.861L140.262 248.464L139.468 246.624L138.55 247.02ZM140.138 250.701L140.933 252.542L141.851 252.145L141.056 250.305L140.138 250.701ZM141.727 254.382L142.521 256.223L143.439 255.826L142.645 253.986L141.727 254.382ZM143.315 258.063L144.11 259.904L145.028 259.507L144.234 257.667L143.315 258.063ZM144.904 261.744L145.698 263.585L146.616 263.188L145.822 261.348L144.904 261.744ZM146.493 265.425L147.287 267.266L148.205 266.869L147.411 265.029L146.493 265.425ZM148.081 269.106L148.875 270.947L149.794 270.55L148.999 268.71L148.081 269.106ZM149.67 272.787L150.464 274.628L151.382 274.231L150.588 272.391L149.67 272.787ZM151.258 276.468L152.053 278.309L152.971 277.912L152.176 276.072L151.258 276.468ZM152.847 280.149L153.641 281.99L154.559 281.593L153.765 279.753L152.847 280.149ZM154.435 283.83L155.23 285.671L156.148 285.274L155.354 283.434L154.435 283.83ZM156.024 287.511L156.818 289.352L157.736 288.955L156.942 287.115L156.024 287.511ZM157.612 291.192L158.407 293.033L159.325 292.636L158.531 290.796L157.612 291.192ZM159.201 294.873L159.995 296.714L160.913 296.317L160.119 294.477L159.201 294.873ZM160.79 298.554L161.584 300.395L162.502 299.998L161.708 298.158L160.79 298.554ZM162.378 302.235L163.172 304.076L164.091 303.679L163.296 301.839L162.378 302.235ZM163.967 305.916L164.761 307.757L165.679 307.36L164.885 305.52L163.967 305.916ZM165.555 309.597L166.35 311.438L167.268 311.041L166.473 309.201L165.555 309.597ZM167.144 313.278L167.541 314.198L168.459 313.802L168.062 312.882L167.144 313.278Z" fill="#BEBEBE"/>
</svg>
