<svg width="550" height="634" viewBox="0 0 550 634" fill="none" xmlns="http://www.w3.org/2000/svg">
<path fill-rule="evenodd" clip-rule="evenodd" d="M549.531 158.5L275 0L0.46875 158.5V475.5L275 634L549.531 475.5V158.5ZM205.797 203.199C190.07 214.934 182.203 229.467 182.203 246.801C182.203 257.467 185.133 266.4 191 273.6C197.133 280.533 205.664 284 216.602 284C227.531 284 236.336 281.199 243 275.6C249.664 269.732 253 262.934 253 255.199C253 247.199 251.93 240.4 249.797 234.801H237C235.398 230.533 234.602 225.6 234.602 220C234.602 214.4 237.266 208.533 242.602 202.4C247.93 196.268 256.336 193.199 267.797 193.199C291.797 193.199 303.797 206.133 303.797 232C303.797 242.934 302.336 251.867 299.398 258.801C296.469 265.467 291.133 272.666 283.398 280.4L258.602 305.6C256.812 307.387 255.57 309.471 254.875 311.852C254.43 313.379 254.203 315.029 254.203 316.801V400.801H264.203V377.6L324.602 324C337.133 312.533 346.867 301.334 353.797 290.4C361 279.199 364.602 266.4 364.602 252C364.602 230.133 356.602 213.6 340.602 202.4C324.867 191.199 302.336 185.6 273 185.6C243.93 185.6 221.531 191.467 205.797 203.199ZM235.797 465.6C240.867 471.199 248.336 474 258.203 474C268.336 474 276.07 471.199 281.398 465.6C286.734 460 289.398 452.4 289.398 442.801C289.398 433.199 286.602 426 281 421.199C278.086 418.566 274.672 416.617 270.75 415.352C267.133 414.184 263.078 413.6 258.602 413.6C249.266 413.6 241.93 416.533 236.602 422.4C231.266 428 228.602 435.199 228.602 444C228.602 452.533 231 459.732 235.797 465.6Z" fill="#38BDF8"/>
</svg>
