<svg width="1303" height="1503" viewBox="0 0 1303 1503" fill="none" xmlns="http://www.w3.org/2000/svg">
<path fill-rule="evenodd" clip-rule="evenodd" d="M652.312 1041.96H652.484L652.438 1042C811.672 1042 941.234 910.043 941.367 747.92C941.367 669.291 911.352 595.438 856.734 539.879C802.203 484.277 729.789 453.664 652.57 453.574C493.211 453.574 363.641 585.531 363.641 747.652C363.555 803.211 378.82 857.342 407.703 904.197L414.68 915.354L385.453 1023.79L494.82 994.607L505.289 1000.99C549.656 1027.76 600.523 1041.96 652.312 1041.96ZM751.555 793.127C759.539 796.07 802.164 817.402 810.883 821.865L810.93 821.73C812.539 822.545 814.047 823.285 815.453 823.975C821.656 827.021 825.812 829.062 827.594 832.084C829.773 835.787 829.773 853.504 822.492 874.164C815.25 894.826 780.562 913.658 763.859 916.246C748.891 918.479 729.961 919.371 709.195 912.676C696.547 908.615 680.406 903.172 659.641 894.023C578.422 858.354 523.469 778.273 512.906 762.875C512.141 761.764 511.609 760.99 511.312 760.594L511.117 760.324C506.125 753.488 475.891 712.016 475.891 669.113C475.891 628.596 495.336 607.312 504.414 597.367L506.25 595.348C514.195 586.557 523.617 584.326 529.461 584.326C535.219 584.326 541.023 584.371 546.039 584.639C551.406 584.906 558.602 582.541 565.586 599.811C570.891 612.764 581.633 639.576 587.859 654.727C590.125 660.246 591.789 664.219 592.367 665.41C593.562 667.859 594.539 670.512 594.695 673.389C594.828 675.75 594.406 678.264 593.109 680.939L591.602 684C589.531 688.234 587.961 691.445 584.469 695.664C582.625 697.852 580.711 700.246 578.812 702.584C576.211 705.781 573.656 708.875 571.383 711.195C567.023 715.613 562.531 720.387 567.586 729.223C572.695 738.104 590.055 767.064 615.883 790.492C643.57 815.611 667.672 826.289 679.945 831.725C682.367 832.799 684.328 833.668 685.766 834.404C691.352 837.232 695.445 837.932 699.008 836.482C700.953 835.689 702.742 834.254 704.531 832.174C707.141 829.129 712.852 822.342 718.562 815.279C723.898 808.678 729.227 801.836 732.008 797.588C737.812 788.664 743.617 790.137 751.555 793.127Z" fill="#38BDF8"/>
<path fill-rule="evenodd" clip-rule="evenodd" d="M1302.32 375.75L651.5 0L0.679688 375.75V1127.25L651.5 1503L1302.32 1127.25V375.75ZM652.398 394C745.406 394.09 832.656 430.949 898.312 497.574L898.352 497.754C963.922 564.602 1000 653.539 1000 748.01C999.914 943.154 844 1101.89 652.484 1101.89H652.312C594.156 1101.84 537.008 1086.94 486.227 1058.82L302 1108L351.297 924.68C320.891 870.951 304.922 810.129 304.922 747.787C305.055 552.686 460.93 394 652.398 394Z" fill="#38BDF8"/>
</svg>
